<svg width="87" height="87" viewBox="0 0 87 87" fill="none" xmlns="http://www.w3.org/2000/svg">
<path d="M15.0795 42H14.0227C13.9602 41.696 13.8509 41.429 13.6946 41.1989C13.5412 40.9688 13.3537 40.7756 13.1321 40.6193C12.9134 40.4602 12.6705 40.3409 12.4034 40.2614C12.1364 40.1818 11.858 40.142 11.5682 40.142C11.0398 40.142 10.5611 40.2756 10.1321 40.5426C9.70597 40.8097 9.36648 41.2031 9.11364 41.723C8.86364 42.2429 8.73864 42.8807 8.73864 43.6364C8.73864 44.392 8.86364 45.0298 9.11364 45.5497C9.36648 46.0696 9.70597 46.4631 10.1321 46.7301C10.5611 46.9972 11.0398 47.1307 11.5682 47.1307C11.858 47.1307 12.1364 47.0909 12.4034 47.0114C12.6705 46.9318 12.9134 46.8139 13.1321 46.6577C13.3537 46.4986 13.5412 46.304 13.6946 46.0739C13.8509 45.8409 13.9602 45.5739 14.0227 45.2727H15.0795C15 45.7187 14.8551 46.1179 14.6449 46.4702C14.4347 46.8224 14.1733 47.1222 13.8608 47.3693C13.5483 47.6136 13.1974 47.7997 12.8082 47.9276C12.4219 48.0554 12.0085 48.1193 11.5682 48.1193C10.8239 48.1193 10.1619 47.9375 9.58239 47.5739C9.00284 47.2102 8.54688 46.6932 8.21449 46.0227C7.8821 45.3523 7.71591 44.5568 7.71591 43.6364C7.71591 42.7159 7.8821 41.9205 8.21449 41.25C8.54688 40.5795 9.00284 40.0625 9.58239 39.6989C10.1619 39.3352 10.8239 39.1534 11.5682 39.1534C12.0085 39.1534 12.4219 39.2173 12.8082 39.3452C13.1974 39.473 13.5483 39.6605 13.8608 39.9077C14.1733 40.152 14.4347 40.4503 14.6449 40.8026C14.8551 41.152 15 41.5511 15.0795 42ZM19.5452 48H18.4373L21.6418 39.2727H22.7327L25.9373 48H24.8293L22.2214 40.6534H22.1532L19.5452 48ZM19.9543 44.5909H24.4202V45.5284H19.9543V44.5909ZM29.6967 48V39.2727H32.6455C33.3273 39.2727 33.887 39.3892 34.3245 39.6222C34.762 39.8523 35.0859 40.169 35.2961 40.5724C35.5063 40.9759 35.6114 41.4347 35.6114 41.9489C35.6114 42.4631 35.5063 42.919 35.2961 43.3168C35.0859 43.7145 34.7634 44.027 34.3288 44.2543C33.8941 44.4787 33.3387 44.5909 32.6626 44.5909H30.2762V43.6364H32.6285C33.0944 43.6364 33.4694 43.5682 33.7535 43.4318C34.0404 43.2955 34.2478 43.1023 34.3756 42.8523C34.5063 42.5994 34.5717 42.2983 34.5717 41.9489C34.5717 41.5994 34.5063 41.294 34.3756 41.0327C34.245 40.7713 34.0361 40.5696 33.7492 40.4276C33.4623 40.2827 33.083 40.2102 32.6114 40.2102H30.7535V48H29.6967ZM33.8046 44.0795L35.9523 48H34.7251L32.6114 44.0795H33.8046ZM42.4656 48H39.7724V39.2727H42.5849C43.4315 39.2727 44.156 39.4474 44.7582 39.7969C45.3605 40.1435 45.8222 40.642 46.1432 41.2926C46.4642 41.9403 46.6247 42.7159 46.6247 43.6193C46.6247 44.5284 46.4628 45.3111 46.1389 45.9673C45.8151 46.6207 45.3435 47.1236 44.7241 47.4759C44.1048 47.8253 43.352 48 42.4656 48ZM40.8293 47.0625H42.3974C43.119 47.0625 43.717 46.9233 44.1915 46.6449C44.6659 46.3665 45.0196 45.9702 45.2526 45.456C45.4855 44.9418 45.602 44.3295 45.602 43.6193C45.602 42.9148 45.4869 42.3082 45.2568 41.7997C45.0267 41.2884 44.683 40.8963 44.2256 40.6236C43.7682 40.348 43.1986 40.2102 42.5168 40.2102H40.8293V47.0625ZM57.7179 39.2727V48H56.6952L51.9395 41.1477H51.8543V48H50.7974V39.2727H51.8202L56.5929 46.142H56.6781V39.2727H57.7179ZM62.2326 48V39.2727H67.4996V40.2102H63.2894V43.1591H67.2269V44.0966H63.2894V47.0625H67.5678V48H62.2326ZM71.3272 40.2102V39.2727H77.8727V40.2102H75.1283V48H74.0715V40.2102H71.3272Z" fill="black"/>
</svg>
