<svg width="182" height="182" viewBox="0 0 182 182" fill="none" xmlns="http://www.w3.org/2000/svg">
<path fill-rule="evenodd" clip-rule="evenodd" d="M74 16H109V68.2195H92.9268L92.9268 106.268H96.7317V83.439L106.244 83.439V106.268V108.171V115.78H81.5122V113.878L81.5122 106.268L81.5122 68.2195L92.9268 68.2195L92.9268 31.122H96.7317V53.9512H106.244L106.244 31.122V21.6098H81.5122V23.5122V31.122V68.2195H74V16ZM72.9512 130.049L72 130.049V128.049V16V14H74H109H111V16L111 68.2195L111 128.049V130.049L72.9512 130.049Z" fill="#023465"/>
<path d="M44.3853 155.762H42.6077C42.5026 155.254 42.3187 154.807 42.0559 154.422C41.7978 154.037 41.4825 153.714 41.1098 153.452C40.7418 153.186 40.3333 152.987 39.8841 152.854C39.435 152.721 38.9667 152.654 38.4793 152.654C37.5906 152.654 36.7854 152.877 36.0639 153.324C35.3472 153.771 34.7762 154.429 34.3509 155.299C33.9304 156.169 33.7202 157.236 33.7202 158.5C33.7202 159.764 33.9304 160.831 34.3509 161.701C34.7762 162.571 35.3472 163.229 36.0639 163.676C36.7854 164.123 37.5906 164.346 38.4793 164.346C38.9667 164.346 39.435 164.279 39.8841 164.146C40.3333 164.013 40.7418 163.816 41.1098 163.555C41.4825 163.288 41.7978 162.963 42.0559 162.578C42.3187 162.188 42.5026 161.741 42.6077 161.238H44.3853C44.2515 161.984 44.0078 162.652 43.6542 163.241C43.3006 163.83 42.861 164.332 42.3354 164.745C41.8098 165.154 41.2197 165.465 40.565 165.679C39.9152 165.893 39.22 166 38.4793 166C37.2274 166 36.1141 165.696 35.1393 165.087C34.1646 164.479 33.3976 163.614 32.8386 162.492C32.2795 161.371 32 160.04 32 158.5C32 156.96 32.2795 155.629 32.8386 154.508C33.3976 153.386 34.1646 152.521 35.1393 151.913C36.1141 151.304 37.2274 151 38.4793 151C39.22 151 39.9152 151.107 40.565 151.321C41.2197 151.535 41.8098 151.848 42.3354 152.262C42.861 152.671 43.3006 153.17 43.6542 153.759C44.0078 154.344 44.2515 155.011 44.3853 155.762Z" fill="#023465"/>
<path d="M51.8963 165.8H50.0328L55.4227 151.2H57.2575L62.6474 165.8H60.7839L56.3974 153.51H56.2828L51.8963 165.8ZM52.5844 160.097H60.0958V161.665H52.5844V160.097Z" fill="#023465"/>
<path d="M68.9705 165.8V151.2H73.9303C75.0771 151.2 76.0184 151.394 76.7543 151.784C77.4901 152.169 78.0348 152.699 78.3884 153.374C78.742 154.049 78.9188 154.817 78.9188 155.677C78.9188 156.537 78.742 157.3 78.3884 157.965C78.0348 158.631 77.4925 159.154 76.7614 159.534C76.0304 159.909 75.0962 160.097 73.959 160.097H69.9452V158.5H73.9016C74.6853 158.5 75.316 158.386 75.7938 158.158C76.2764 157.93 76.6253 157.606 76.8403 157.188C77.0601 156.765 77.17 156.261 77.17 155.677C77.17 155.092 77.0601 154.581 76.8403 154.144C76.6205 153.707 76.2693 153.369 75.7867 153.132C75.3041 152.889 74.6662 152.768 73.873 152.768H70.748V165.8H68.9705ZM75.8798 159.241L79.4922 165.8H77.428L73.873 159.241H75.8798Z" fill="#023465"/>
<path d="M90.4472 165.8H85.9174V151.2H90.6479C92.0718 151.2 93.2903 151.492 94.3033 152.077C95.3163 152.656 96.0927 153.49 96.6327 154.579C97.1726 155.663 97.4426 156.96 97.4426 158.471C97.4426 159.992 97.1702 161.302 96.6255 162.4C96.0808 163.493 95.2876 164.334 94.2459 164.923C93.2043 165.508 91.938 165.8 90.4472 165.8ZM87.6949 164.232H90.3325C91.5462 164.232 92.552 163.999 93.35 163.533C94.148 163.067 94.7429 162.404 95.1347 161.544C95.5265 160.684 95.7224 159.66 95.7224 158.471C95.7224 157.293 95.5289 156.278 95.1419 155.427C94.7548 154.572 94.1767 153.916 93.4074 153.46C92.6381 152.999 91.68 152.768 90.5332 152.768H87.6949V164.232Z" fill="#023465"/>
<path d="M116.101 151.2V165.8H114.381L106.382 154.337H106.238V165.8H104.461V151.2H106.181L114.209 162.692H114.352V151.2H116.101Z" fill="#023465"/>
<path d="M123.694 165.8V151.2H132.553V152.768H125.472V157.702H132.094V159.27H125.472V164.232H132.668V165.8H123.694Z" fill="#023465"/>
<path d="M138.991 152.768V151.2H150V152.768H145.384V165.8H143.607V152.768H138.991Z" fill="#023465"/>
</svg>
