<svg width="219" height="112" viewBox="0 0 219 112" fill="none" xmlns="http://www.w3.org/2000/svg">
<path fill-rule="evenodd" clip-rule="evenodd" d="M0 0H51V112H0V0ZM56 0H107V112H56V0ZM163 0H112V112H163V0ZM168 0H219V112H168V0ZM101.949 66.0575C104.013 62.7068 105.045 58.6217 105.045 53.8023C105.045 48.9829 104.013 44.8978 101.949 41.5471C99.8861 38.1963 97.0927 35.6511 93.5691 33.9116C90.0614 32.172 86.1251 31.3023 81.7603 31.3023C77.3797 31.3023 73.4355 32.172 69.9278 33.9116C66.4201 35.6511 63.6346 38.1963 61.5712 41.5471C59.5237 44.8978 58.5 48.9829 58.5 53.8023C58.5 58.6074 59.5237 62.6854 61.5712 66.0361C63.6346 69.3726 66.4201 71.9178 69.9278 73.6716C73.4355 75.4254 77.3797 76.3023 81.7603 76.3023C86.1251 76.3023 90.0614 75.4325 93.5691 73.693C97.0927 71.9534 99.8861 69.4083 101.949 66.0575ZM91.6406 46.5732C92.5453 48.5409 92.9977 50.9506 92.9977 53.8023C92.9977 56.654 92.5453 59.0637 91.6406 61.0314C90.7518 62.9991 89.4662 64.4891 87.7838 65.5014C86.1172 66.5138 84.1094 67.02 81.7603 67.02C79.4271 67.02 77.4194 66.5138 75.7369 65.5014C74.0545 64.4891 72.7609 62.9991 71.8562 61.0314C70.9674 59.0637 70.523 56.654 70.523 53.8023C70.523 50.9506 70.9674 48.5409 71.8562 46.5732C72.7609 44.6055 74.0545 43.1155 75.7369 42.1031C77.4194 41.0908 79.4271 40.5846 81.7603 40.5846C84.1094 40.5846 86.1172 41.0908 87.7838 42.1031C89.4662 43.1155 90.7518 44.6055 91.6406 46.5732ZM5.5 32.5V76.3023H17.2849V64.432L21.9989 59.0851L34.141 76.3023H48.2353L30.6412 52.0485L47.9258 32.5H34.0457L17.9277 51.0219H17.2849V32.5H5.5ZM158 32.5V76.3023H148.001L128.597 51.0219H128.288V76.3023H116.503V32.5H126.645L145.834 57.7376H146.239V32.5H158ZM176.502 32.5V76.3023H210.5V67.7044H188.287V58.7001H208.762V50.0808H188.287V41.0979H210.5V32.5H176.502Z" fill="#CED4DA"/>
</svg>
