<svg xmlns="http://www.w3.org/2000/svg" width="241.893" height="78.21" viewBox="0 0 241.893 78.21">
    <defs>
        <style>.a{fill:#0099ab;}.b{fill:#004e7d;}.c{fill:#0f97af;}</style>
    </defs>
    <g transform="translate(0 0)">
        <g transform="translate(33.111 0.562)">
            <path class="a"
                  d="M414.433,771.672v12.637a12.9,12.9,0,0,0,.984,4.961,11.986,11.986,0,0,0,2.669,4.072,12.575,12.575,0,0,0,8.992,3.744h19.061V784.309a12.442,12.442,0,0,0-.983-4.868,11.73,11.73,0,0,0-2.763-4.025,12.07,12.07,0,0,0-8.992-3.744H414.433m6.51,12.637v-6.085H433.4A6.292,6.292,0,0,1,437.8,780a5.888,5.888,0,0,1,1.826,4.306v6.178H427.078a6.076,6.076,0,0,1-4.309-1.779A5.8,5.8,0,0,1,420.943,784.309Z"
                  transform="translate(-414.433 -771.672)"/>
        </g>
        <g transform="translate(100.32 0.526)">
            <path class="b"
                  d="M-13.375-68.061a12.268,12.268,0,0,0,.359-2.958V-83.657h-19a11.948,11.948,0,0,0-7.171,2.241,12.248,12.248,0,0,0-1.793,1.524,12.554,12.554,0,0,0-2.689,4.034,11.832,11.832,0,0,0-1.076,4.84V-58.2h19.092a11.948,11.948,0,0,0,8.874-3.765A11.884,11.884,0,0,0-14-66a11.628,11.628,0,0,0,.627-2.062m-6.1-2.958a5.885,5.885,0,0,1-.717,2.958,4.985,4.985,0,0,1-1.165,1.434,5.681,5.681,0,0,1-4.3,1.793H-38.2v-6.185a5.922,5.922,0,0,1,1.882-4.3,5.832,5.832,0,0,1,4.3-1.7H-19.47Z"
                  transform="translate(44.747 83.657)"/>
        </g>
        <g transform="translate(214.215 32.389)">
            <path class="a" d="M824.707,846.182H835.2v-5.429H807.519v5.429H818.01v19.471h6.7Z"
                  transform="translate(-807.519 -840.752)"/>
        </g>
        <g transform="translate(182.837 31.827)">
            <path class="a"
                  d="M769.105,844.495a10.376,10.376,0,0,0-2.061-2.715,13.966,13.966,0,0,0-3.419-1.685,17.593,17.593,0,0,0-4.543-.562,24.626,24.626,0,0,0-3.747.281,24.145,24.145,0,0,0-3.466,1.03,23.832,23.832,0,0,0-3.044,1.264q-1.873.936-2.669,1.451v-3.464h-6.744v24.9h6.744V849.456a12.477,12.477,0,0,1,2.435-1.732,10.768,10.768,0,0,1,2.81-1.4,18.343,18.343,0,0,1,3-1.076,15.848,15.848,0,0,1,2.857-.374,8.737,8.737,0,0,1,2.951.468,3.339,3.339,0,0,1,1.733,1.311,4.046,4.046,0,0,1,.937,1.872,14.1,14.1,0,0,1,.234,2.574v13.9h6.744V848.052A8.447,8.447,0,0,0,769.105,844.495Z"
                  transform="translate(-739.413 -839.533)"/>
        </g>
        <g transform="translate(147.759 31.827)">
            <path class="a"
                  d="M690.439,843.09a17.045,17.045,0,0,0-4.871-2.715,23.434,23.434,0,0,0-12.785.094,15.294,15.294,0,0,0-5.152,2.808,11.964,11.964,0,0,0-3.185,4.212,12.133,12.133,0,0,0-1.171,5.242,12.559,12.559,0,0,0,1.171,5.429,11.022,11.022,0,0,0,3.278,4.166,17.023,17.023,0,0,0,5.339,2.527,36.62,36.62,0,0,0,13.441.328,35.741,35.741,0,0,0,6.088-1.4v-5.8a6.457,6.457,0,0,1-1.92.843,12.581,12.581,0,0,1-2.81.842,28.066,28.066,0,0,1-3.278.655q-2.435.187-3.7.187a22.84,22.84,0,0,1-4.5-.374,11.713,11.713,0,0,1-3.044-1.076,4.831,4.831,0,0,1-2.108-1.638,12.7,12.7,0,0,1-1.124-2.106h24.541v-1.685a14.183,14.183,0,0,0-1.124-6.038,12.514,12.514,0,0,0-3.091-4.493m-14.986,2.247a12.361,12.361,0,0,1,3.981-.562,12.631,12.631,0,0,1,3.981.562,6.959,6.959,0,0,1,2.576,1.311,5.419,5.419,0,0,1,1.452,1.825,8.594,8.594,0,0,1,.609,1.825H670.114a11.548,11.548,0,0,1,.89-1.779,8.29,8.29,0,0,1,4.449-3.183Z"
                  transform="translate(-663.276 -839.533)"/>
        </g>
        <g transform="translate(100.363 31.827)">
            <path class="a"
                  d="M593.984,844.775a3.877,3.877,0,0,1,1.452.281,3.262,3.262,0,0,1,1.265.655,5.83,5.83,0,0,1,.749,1.217,4.617,4.617,0,0,1,.328,1.685v16.382h6.7V847.724a7.171,7.171,0,0,0-.656-3.23,9.06,9.06,0,0,0-1.873-2.621,11.452,11.452,0,0,0-3.091-1.779,13.66,13.66,0,0,0-4.028-.562l-2.81.187a13.346,13.346,0,0,0-2.529.842,14.367,14.367,0,0,0-2.529,1.123l-2.576,1.5-.983-1.31a5.313,5.313,0,0,0-1.592-1.123,6.636,6.636,0,0,0-2.061-.936,11.59,11.59,0,0,0-2.763-.281,15.539,15.539,0,0,0-3.044.281,14.224,14.224,0,0,0-2.623.842,22.147,22.147,0,0,0-2.295,1.03,8.469,8.469,0,0,1-1.873,1.123v-2.715H560.4v24.9h6.744V848.52a17.806,17.806,0,0,1,1.873-1.5,16.937,16.937,0,0,1,2.107-1.123,11.422,11.422,0,0,1,2.107-.843q.7-.094,2.014-.281a8.058,8.058,0,0,1,1.5.187,5.575,5.575,0,0,1,1.171.655,4.276,4.276,0,0,1,.89,1.17,5.437,5.437,0,0,1,.281,1.732v16.475h6.7V848.8l-.047-.655Q590.378,844.775,593.984,844.775Z"
                  transform="translate(-560.405 -839.533)"/>
        </g>
        <g transform="translate(67.112 32.389)">
            <path class="a"
                  d="M518.3,840.752h-6.7v6.272a12.705,12.705,0,0,1-1.733,1.685,8.866,8.866,0,0,1-2.107,1.5,12.519,12.519,0,0,1-2.716,1.123,17.7,17.7,0,0,1-3.044.421,17.939,17.939,0,0,1-3.278-.421,6.281,6.281,0,0,1-2.107-1.217,4.766,4.766,0,0,1-1.265-1.872,9.174,9.174,0,0,1-.375-2.621v-4.868h-6.744v5.523a14.075,14.075,0,0,0,.656,4.54,7.869,7.869,0,0,0,2.2,3.323,10.245,10.245,0,0,0,4.028,2.153,23.793,23.793,0,0,0,6.276.655,17.656,17.656,0,0,0,5.761-.842,14.47,14.47,0,0,0,4.449-2.247V856.1a2.615,2.615,0,0,1-.234.983,1.806,1.806,0,0,1-.609,1.076,5.3,5.3,0,0,1-1.264,1.123,10.561,10.561,0,0,1-1.873.889,16.157,16.157,0,0,1-2.576.609,19.78,19.78,0,0,1-3.512.281q-1.545,0-4.074-.187l-3.559-.562a22.335,22.335,0,0,1-3.138-.749q-.937-.281-2.529-.936v5.9a13.84,13.84,0,0,0,2.669.655l3.278.608q.515.094,3.606.328a34.036,34.036,0,0,0,3.653.187,30.646,30.646,0,0,0,6.931-.749,15.217,15.217,0,0,0,5.339-1.966,9.1,9.1,0,0,0,3.419-3.183A8.1,8.1,0,0,0,518.3,856.1Z"
                  transform="translate(-488.232 -840.752)"/>
        </g>
        <g transform="translate(32.081 31.733)">
            <path class="a"
                  d="M443.2,844.291a8.066,8.066,0,0,0-3.044-2.808,14.867,14.867,0,0,0-4.777-1.591,37.928,37.928,0,0,0-7.212-.562,23.725,23.725,0,0,0-3.466.187q-2.435.187-3.7.281l-6.369,1.217v5.991q.89-.234,2.81-.8a31.053,31.053,0,0,1,3.278-.8,25.954,25.954,0,0,1,3.653-.562,28.147,28.147,0,0,1,3.793-.187,31.138,31.138,0,0,1,5.1.281,12.616,12.616,0,0,1,2.9.749,2.368,2.368,0,0,1,1.311,1.123,2.545,2.545,0,0,1,.328,1.217v.608q-8.758.421-12.411.8a32.508,32.508,0,0,0-7.353,1.685,10.663,10.663,0,0,0-4.449,2.855,6.242,6.242,0,0,0-1.4,4.212,5.575,5.575,0,0,0,.937,3.323,6.868,6.868,0,0,0,2.388,2.34,11.667,11.667,0,0,0,3.466,1.217,18.983,18.983,0,0,0,4.074.421q.468,0,3.606-.234a23.117,23.117,0,0,0,3.325-.515q.515-.14,2.248-.468,1.592-.328,2.2-.515,2.95-1.077,3.372-1.311v2.574h6.557v-16.8a6.583,6.583,0,0,0-1.171-3.932m-21.543,11.046a14.987,14.987,0,0,1,2.95-.749,31.539,31.539,0,0,1,4.683-.608q3.887-.374,8.524-.468v3.323a18.834,18.834,0,0,1-6.369,2.434,30.945,30.945,0,0,1-6.838.842,11.7,11.7,0,0,1-2.576-.187,3.473,3.473,0,0,1-1.639-.468,1.942,1.942,0,0,1-.843-.749,1.144,1.144,0,0,1-.281-.842l.047-.749a3.306,3.306,0,0,1,.7-.936Q420.3,855.993,421.657,855.337Z"
                  transform="translate(-412.197 -839.33)"/>
        </g>
        <g transform="translate(0 32.389)">
            <path class="a"
                  d="M372.726,846.088a6.044,6.044,0,0,0-1.827-2.762,8.21,8.21,0,0,0-3.278-1.919,18.849,18.849,0,0,0-4.917-.655H342.565v24.9h6.744v-6.88H362.7a17.029,17.029,0,0,0,4.917-.7A9.385,9.385,0,0,0,370.9,856.2a8.16,8.16,0,0,0,1.827-2.855,11.319,11.319,0,0,0,.562-3.6,11.471,11.471,0,0,0-.562-3.651m-11.568.281a9.827,9.827,0,0,1,2.342.187,2.626,2.626,0,0,1,1.545.655,1.62,1.62,0,0,1,.8,1.03,3.645,3.645,0,0,1,.328,1.638,2.7,2.7,0,0,1-.328,1.451,1.236,1.236,0,0,1-.8,1.03,2.664,2.664,0,0,1-1.545.562,7.93,7.93,0,0,1-2.342.234H349.31v-6.787Z"
                  transform="translate(-342.565 -840.752)"/>
        </g>
        <g transform="translate(63.39 0.705)">
            <path class="a" d="M-88.063-83.268H-96.4l-10.039,18.554-10.129-18.554H-124.9l13.983,24.739h8.695Z"
                  transform="translate(124.902 83.268)"/>
        </g>
        <g transform="translate(0)">
            <path class="c"
                  d="M354.976,771.763q-1.265.468-2.951,1.217l-2.716,1.5v-3.464h-6.744v24.9h6.744V780.375a12.93,12.93,0,0,1,2.342-1.779q2.67-1.31,2.857-1.4a32.013,32.013,0,0,1,3.044-1.03,14.672,14.672,0,0,1,2.81-.328,7.569,7.569,0,0,1,2.951.468,3.553,3.553,0,0,1,1.827,1.264,3.7,3.7,0,0,1,.843,1.872,12.011,12.011,0,0,1,.234,2.527v13.948h6.65V778.971a9.2,9.2,0,0,0-.609-3.557,8.508,8.508,0,0,0-2.2-2.621,9.957,9.957,0,0,0-3.372-1.779,16.211,16.211,0,0,0-4.449-.562,18.054,18.054,0,0,0-3.887.374A21.419,21.419,0,0,0,354.976,771.763Z"
                  transform="translate(-342.565 -770.453)"/>
        </g>
        <g transform="translate(66.363 61.22)">
            <path class="b"
                  d="M618.066,907.076H616.24l-1.873,9.361h1.826l1.873-9.361m15.174,8.378-.468-1.4a4.592,4.592,0,0,1-3,1.077,2.6,2.6,0,0,1-1.92-.7,2.409,2.409,0,0,1-.7-1.779,1.449,1.449,0,0,1,.094-.608h6.744a5.929,5.929,0,0,0,.281-1.685,3.233,3.233,0,0,0-3.513-3.464,5.081,5.081,0,0,0-3.887,1.732,5.914,5.914,0,0,0-1.5,4.072,3.693,3.693,0,0,0,1.171,2.855,4.285,4.285,0,0,0,3.091,1.077,5.807,5.807,0,0,0,3.606-1.17m-.8-5.289v.608H627.48a4.245,4.245,0,0,1,1.311-1.825,3.175,3.175,0,0,1,1.92-.655,1.648,1.648,0,0,1,1.218.468,1.9,1.9,0,0,1,.515,1.4m-56.059,1.872a5.927,5.927,0,0,0,.281-1.685,3.352,3.352,0,0,0-.89-2.481,3.513,3.513,0,0,0-2.669-.983,5.081,5.081,0,0,0-3.887,1.732,5.919,5.919,0,0,0-1.545,4.072,3.693,3.693,0,0,0,1.171,2.855,4.631,4.631,0,0,0,3.185,1.077,5.807,5.807,0,0,0,3.606-1.17l-.468-1.4a4.841,4.841,0,0,1-3,1.077q-2.623,0-2.623-2.481v-.608h6.838m-5.2-3.089a3.175,3.175,0,0,1,1.92-.655,1.648,1.648,0,0,1,1.218.468,1.9,1.9,0,0,1,.515,1.4v.608h-4.964a4.245,4.245,0,0,1,1.311-1.825m14.753.749a2.544,2.544,0,0,0-.984-2.153,3.772,3.772,0,0,0-2.295-.655,6.511,6.511,0,0,0-2.576.562l-1.03.515.609,1.4.8-.468a4.363,4.363,0,0,1,1.873-.468q1.733,0,1.733,1.451a1.884,1.884,0,0,1-.14.749H583.6a10.371,10.371,0,0,0-4.074.7,3.1,3.1,0,0,0-2.2,2.949,2.086,2.086,0,0,0,.843,1.732,3.024,3.024,0,0,0,1.967.608,3.613,3.613,0,0,0,2.435-.936l.843-.936-.422,1.685h1.639l1.124-5.663a5.833,5.833,0,0,0,.187-1.076m-3.325,4.54a2.724,2.724,0,0,1-1.967.983q-1.452,0-1.452-1.17,0-2.106,4.074-2.106h.468l-.047.281a4.106,4.106,0,0,1-1.077,2.013m7.165-4.4a1.144,1.144,0,0,1,.656-1.03,2.153,2.153,0,0,1,1.218-.374,2.767,2.767,0,0,1,2.107.7l.937-1.17a4.433,4.433,0,0,0-5.433-.281,2.553,2.553,0,0,0-1.171,2.153q0,1.5,2.061,2.434,2.014.983,2.014,1.545a1.121,1.121,0,0,1-.609.983,2.31,2.31,0,0,1-1.265.328,3.769,3.769,0,0,1-1.92-.515l-.7-.515-.937,1.217.89.655a5.544,5.544,0,0,0,2.669.655,4.266,4.266,0,0,0,2.576-.749,2.486,2.486,0,0,0,1.03-2.059q0-1.591-2.061-2.528t-2.061-1.451m13.347-2.761-3.512,6.365-.468,1.077h-.094a3.75,3.75,0,0,0-.141-1.077l-1.171-6.365h-1.967l2.154,9.314-.656,1.123a2.466,2.466,0,0,1-1.967,1.264,1.757,1.757,0,0,1-.8-.187l-.281-.187-.8,1.31.515.328a3.878,3.878,0,0,0,1.452.281,3.611,3.611,0,0,0,3.185-2.2l6.557-11.046h-2.014m22.293-3.744a4.452,4.452,0,0,0-2.248.562,3.826,3.826,0,0,0-1.827,2.808v.468h-1.218l-.328,1.5h1.124l-1.452,7.77h1.873l1.405-7.77h2.2l.328-1.5h-2.2v-.375a2.213,2.213,0,0,1,2.342-1.872h.468l.328-1.451a2.02,2.02,0,0,0-.8-.14m-6.6.14h-1.873l-.422,1.872h1.873l.422-1.872m-5.1,0h-1.733l-2.014,10.344-.047.749a1.8,1.8,0,0,0,2.061,2.013.982.982,0,0,0,.515-.141l.422-1.591-.281.14q-.843,0-.843-.8l.047-.749,1.873-9.969m-75.261,7.3a4.016,4.016,0,0,0-.937-2.808,3.437,3.437,0,0,0-2.669-1.076,3.594,3.594,0,0,0-3.138,1.778h-.141a2.793,2.793,0,0,0,.328-.7l.047-.889H530.3l-2.482,13.105h1.78l.983-5.148a2.67,2.67,0,0,0,2.763,1.591,4.679,4.679,0,0,0,3.513-1.591,6.06,6.06,0,0,0,1.592-4.259m-3.934-2.293a1.942,1.942,0,0,1,1.5.608,2.568,2.568,0,0,1,.562,1.732A4.624,4.624,0,0,1,535.5,914a3.154,3.154,0,0,1-2.389,1.123,1.793,1.793,0,0,1-1.545-.7,2.723,2.723,0,0,1-.515-1.732,4.473,4.473,0,0,1,.984-2.9,3.071,3.071,0,0,1,2.482-1.311m13.113,2.293a5.829,5.829,0,0,0,.187-1.076,2.544,2.544,0,0,0-.983-2.153,3.773,3.773,0,0,0-2.295-.655,6.511,6.511,0,0,0-2.576.562l-1.03.515.515,1.4.89-.468a4.669,4.669,0,0,1,1.92-.468q1.686,0,1.686,1.451a1.884,1.884,0,0,1-.141.749h-.468a10.1,10.1,0,0,0-3.981.7,3.1,3.1,0,0,0-2.154,2.949,2.086,2.086,0,0,0,.843,1.732,3.024,3.024,0,0,0,1.967.608,3.461,3.461,0,0,0,3.185-1.872h.094l-.422,1.685h1.592l1.171-5.663m-3.185,3.464a2.583,2.583,0,0,1-1.92.983q-1.452,0-1.452-1.17,0-2.106,4.121-2.106h.468l-.14.281a3.659,3.659,0,0,1-1.077,2.013m16.2.281h-2.014l-1.873,3.791h1.545l2.342-3.791m-1.873-7.442h-2.061l-3.466,6.365-.468,1.077h-.094a3.747,3.747,0,0,0-.141-1.077l-1.264-6.365H549.5l2.061,9.314-.656,1.123a2.234,2.234,0,0,1-1.967,1.264,1.757,1.757,0,0,1-.8-.187l-.281-.187-.7,1.31.515.328a3.205,3.205,0,0,0,1.358.281,3.611,3.611,0,0,0,3.185-2.2l6.557-11.046m-64.021.8a3.513,3.513,0,0,0-2.669-.983,5.132,5.132,0,0,0-3.934,1.732,5.81,5.81,0,0,0-1.546,4.072,3.624,3.624,0,0,0,1.218,2.855,4.7,4.7,0,0,0,3.232,1.077,5.667,5.667,0,0,0,3.513-1.17l-.562-1.4a4.468,4.468,0,0,1-2.9,1.077,2.66,2.66,0,0,1-1.967-.7,2.409,2.409,0,0,1-.7-1.779l.047-.608h6.838a5.16,5.16,0,0,0,.328-1.685,3.352,3.352,0,0,0-.89-2.481m-2.763.421a1.875,1.875,0,0,1,1.311.468,1.81,1.81,0,0,1,.562,1.4l-.094.608h-4.964a4.112,4.112,0,0,1,1.311-1.825,2.979,2.979,0,0,1,1.873-.655m9.367.14q1.639,0,1.639,1.451a2.726,2.726,0,0,1-.094.749h-.468a9.886,9.886,0,0,0-3.981.7,3.1,3.1,0,0,0-2.154,2.949,2.086,2.086,0,0,0,.843,1.732,3.069,3.069,0,0,0,1.92.608,3.556,3.556,0,0,0,2.389-.936l.843-.936-.234.749-.141.936h1.686l1.124-5.663.047-1.076q0-2.808-3.185-2.808a6.085,6.085,0,0,0-2.482.562l-1.03.515.468,1.4.89-.468a4.668,4.668,0,0,1,1.92-.468m1.311,3.791a4.743,4.743,0,0,1-1.124,2.013,2.764,2.764,0,0,1-2.014.983,1.458,1.458,0,0,1-1.077-.374.936.936,0,0,1-.375-.8q0-1.217,1.639-1.732a7.618,7.618,0,0,1,2.576-.374h.468l-.094.281m6.7-3.417a2.229,2.229,0,0,1,1.264-.374,2.863,2.863,0,0,1,2.107.7l.89-1.17a4.433,4.433,0,0,0-5.433-.281,2.5,2.5,0,0,0-1.124,2.153q0,1.5,2.014,2.434,2.014.983,2.014,1.545a1.135,1.135,0,0,1-.562.983,2.22,2.22,0,0,1-1.218.328,3.857,3.857,0,0,1-1.967-.515l-.7-.515-.89,1.217.89.655a5.544,5.544,0,0,0,2.67.655,3.98,3.98,0,0,0,2.482-.749,2.486,2.486,0,0,0,1.03-2.059q0-1.591-2.014-2.528-2.061-.936-2.061-1.451a1.155,1.155,0,0,1,.609-1.03m14.706-1.732h-2.014l-4.075,7.442-1.4-7.442h-1.873l2.154,9.314-.609,1.123a2.676,2.676,0,0,1-2.014,1.264,1.662,1.662,0,0,1-.749-.187l-.281-.187-.843,1.31.515.328a3.651,3.651,0,0,0,1.358.281,3.807,3.807,0,0,0,3.278-2.2Z"
                  transform="translate(-486.606 -903.331)"/>
        </g>
    </g>
</svg>
