<?xml version="1.0" encoding="UTF-8" ?>
<!DOCTYPE svg PUBLIC "-//W3C//DTD SVG 1.1//EN" "http://www.w3.org/Graphics/SVG/1.1/DTD/svg11.dtd">
<svg width="167pt" height="172pt" viewBox="0 0 167 172" version="1.1" xmlns="http://www.w3.org/2000/svg">
<g id="#f1592aff">
<path fill="#f1592a" opacity="1.00" d=" M 0.00 0.00 L 167.00 0.00 L 167.00 172.00 L 0.00 172.00 L 0.00 0.00 M 43.91 16.17 C 37.06 23.02 31.40 31.52 29.69 41.20 C 29.32 43.97 29.36 46.80 28.54 49.50 C 24.38 50.10 20.40 51.67 16.80 53.82 C 12.33 56.68 9.00 60.91 5.36 64.70 C 6.83 73.78 12.19 82.65 20.70 86.68 C 27.18 90.42 34.93 91.54 42.27 90.42 C 45.35 88.03 44.81 83.18 41.34 81.45 C 32.68 82.11 23.03 79.63 17.54 72.45 C 16.35 70.82 14.74 68.66 15.66 66.57 C 21.27 60.04 30.30 57.84 38.62 58.68 C 38.16 55.47 37.45 52.28 37.46 49.03 C 37.26 40.92 40.90 33.12 46.05 27.02 C 46.76 25.95 48.09 26.50 49.13 26.51 C 55.84 32.13 60.39 40.33 60.94 49.14 C 62.11 54.94 59.34 60.49 59.27 66.23 C 59.67 66.84 60.46 68.07 60.86 68.68 C 62.61 68.83 64.36 68.73 66.09 68.48 C 70.01 61.16 70.15 52.44 68.91 44.42 C 67.07 32.81 60.04 22.01 49.70 16.27 C 47.99 15.32 45.48 14.51 43.91 16.17 M 103.68 46.13 C 103.58 76.60 103.90 107.08 103.52 137.55 C 107.34 138.93 111.47 138.01 115.44 138.34 C 115.67 137.23 115.92 136.12 116.18 135.01 C 116.73 128.35 114.82 121.67 116.49 115.07 C 124.33 125.37 132.64 135.30 140.61 145.50 C 142.81 148.09 145.17 151.34 148.87 151.62 C 153.27 151.98 157.69 151.73 162.10 151.69 C 161.40 149.91 160.32 148.33 159.01 146.95 C 149.84 136.04 140.94 124.90 131.59 114.14 C 131.48 113.61 131.28 112.54 131.17 112.01 C 141.06 101.62 150.38 90.71 160.36 80.42 C 154.97 80.17 149.35 78.89 144.12 80.88 C 140.92 82.58 138.59 85.45 136.27 88.16 C 129.71 95.75 122.84 103.07 116.46 110.82 C 115.34 106.25 116.75 101.62 115.94 97.03 C 116.48 83.56 116.39 70.03 115.62 56.57 C 115.46 53.66 113.36 51.43 112.00 48.99 C 110.69 48.21 109.40 47.40 108.14 46.56 C 106.65 46.40 105.17 46.26 103.68 46.13 M 88.73 59.68 C 85.54 60.93 82.87 63.30 81.03 66.17 C 78.93 70.33 79.51 75.14 79.44 79.65 C 77.44 79.69 75.44 79.73 73.45 79.78 C 73.37 83.72 73.38 87.67 73.43 91.61 C 75.42 91.64 77.41 91.67 79.40 91.70 C 79.49 105.79 79.35 119.89 79.47 133.99 C 79.55 139.03 80.21 144.44 83.57 148.45 C 87.05 152.95 93.25 153.62 98.54 153.75 C 98.64 149.41 98.71 145.08 98.55 140.74 C 95.77 140.53 94.08 138.16 92.68 136.04 C 92.45 134.69 92.19 133.35 91.84 132.04 C 91.37 118.59 91.71 105.12 91.65 91.66 C 93.34 91.64 95.04 91.63 96.74 91.62 C 96.80 87.67 96.81 83.73 96.73 79.79 C 95.03 79.78 93.34 79.78 91.65 79.78 C 91.57 73.05 91.71 66.32 91.53 59.59 C 90.60 59.62 89.66 59.65 88.73 59.68 M 55.27 79.80 C 55.19 98.54 55.24 117.28 55.25 136.01 C 55.29 138.40 55.16 140.83 55.78 143.17 C 57.65 147.82 61.98 152.26 67.38 151.75 C 67.38 127.95 67.22 104.14 67.46 80.34 C 63.53 79.05 59.32 79.92 55.27 79.80 Z" />
</g>
<g id="#fdfdfdff">
<path fill="#fdfdfd" opacity="1.00" d=" M 43.91 16.17 C 45.48 14.51 47.99 15.32 49.70 16.27 C 60.04 22.01 67.07 32.81 68.91 44.42 C 70.15 52.44 70.01 61.16 66.09 68.48 C 64.36 68.73 62.61 68.83 60.86 68.68 C 60.46 68.07 59.67 66.84 59.27 66.23 C 59.34 60.49 62.11 54.94 60.94 49.14 C 60.39 40.33 55.84 32.13 49.13 26.51 C 48.09 26.50 46.76 25.95 46.05 27.02 C 40.90 33.12 37.26 40.92 37.46 49.03 C 37.45 52.28 38.16 55.47 38.62 58.68 C 30.30 57.84 21.27 60.04 15.66 66.57 C 14.74 68.66 16.35 70.82 17.54 72.45 C 23.03 79.63 32.68 82.11 41.34 81.45 C 44.81 83.18 45.35 88.03 42.27 90.42 C 34.93 91.54 27.18 90.42 20.70 86.68 C 12.19 82.65 6.83 73.78 5.36 64.70 C 9.00 60.91 12.33 56.68 16.80 53.82 C 20.40 51.67 24.38 50.10 28.54 49.50 C 29.36 46.80 29.32 43.97 29.69 41.20 C 31.40 31.52 37.06 23.02 43.91 16.17 Z" />
<path fill="#fdfdfd" opacity="1.00" d=" M 103.68 46.13 C 105.17 46.26 106.65 46.40 108.14 46.56 C 109.40 47.40 110.69 48.21 112.00 48.99 C 113.36 51.43 115.46 53.66 115.62 56.57 C 116.39 70.03 116.48 83.56 115.94 97.03 C 116.75 101.62 115.34 106.25 116.46 110.82 C 122.84 103.07 129.71 95.75 136.27 88.16 C 138.59 85.45 140.92 82.58 144.12 80.88 C 149.35 78.89 154.97 80.17 160.36 80.42 C 150.38 90.71 141.06 101.62 131.17 112.01 C 131.28 112.54 131.48 113.61 131.59 114.14 C 140.94 124.90 149.84 136.04 159.01 146.95 C 160.32 148.33 161.40 149.91 162.10 151.69 C 157.69 151.73 153.27 151.98 148.87 151.62 C 145.17 151.34 142.81 148.09 140.61 145.50 C 132.64 135.30 124.33 125.37 116.49 115.07 C 114.82 121.67 116.73 128.35 116.18 135.01 C 115.92 136.12 115.67 137.23 115.44 138.34 C 111.47 138.01 107.34 138.93 103.52 137.55 C 103.90 107.08 103.58 76.60 103.68 46.13 Z" />
<path fill="#fdfdfd" opacity="1.00" d=" M 88.73 59.68 C 89.66 59.65 90.60 59.62 91.53 59.59 C 91.71 66.32 91.57 73.05 91.65 79.78 C 93.34 79.78 95.03 79.78 96.73 79.79 C 96.81 83.73 96.80 87.67 96.74 91.62 C 95.04 91.63 93.34 91.64 91.65 91.66 C 91.71 105.12 91.37 118.59 91.84 132.04 C 92.19 133.35 92.45 134.69 92.68 136.04 C 94.08 138.16 95.77 140.53 98.55 140.74 C 98.71 145.08 98.64 149.41 98.54 153.75 C 93.25 153.62 87.05 152.95 83.57 148.45 C 80.21 144.44 79.55 139.03 79.47 133.99 C 79.35 119.89 79.49 105.79 79.40 91.70 C 77.41 91.67 75.42 91.64 73.43 91.61 C 73.38 87.67 73.37 83.72 73.45 79.78 C 75.44 79.73 77.44 79.69 79.44 79.65 C 79.51 75.14 78.93 70.33 81.03 66.17 C 82.87 63.30 85.54 60.93 88.73 59.68 Z" />
<path fill="#fdfdfd" opacity="1.00" d=" M 55.27 79.80 C 59.32 79.92 63.53 79.05 67.46 80.34 C 67.22 104.14 67.38 127.95 67.38 151.75 C 61.98 152.26 57.65 147.82 55.78 143.17 C 55.16 140.83 55.29 138.40 55.25 136.01 C 55.24 117.28 55.19 98.54 55.27 79.80 Z" />
</g>
</svg>
