<svg width="712" height="645" viewBox="0 0 712 645" fill="none" xmlns="http://www.w3.org/2000/svg">
<mask id="path-1-inside-1_22_14" fill="white">
<path fill-rule="evenodd" clip-rule="evenodd" d="M301.415 2.96164C306.278 -2.175 314.053 0.331433 319.35 3.27108C351.38 21.0327 373.156 54.4519 378.856 90.3774C382.697 115.194 382.264 142.177 370.121 164.828C364.762 165.601 359.341 165.911 353.92 165.447C353.3 164.503 352.379 163.08 351.457 161.656C350.536 160.233 349.614 158.809 348.995 157.866C349.083 150.637 350.556 143.506 352.029 136.381C354.174 125.997 356.317 115.626 354.168 104.983C352.464 77.7215 338.37 52.3477 317.584 34.9574C316.792 34.9498 315.945 34.841 315.085 34.7306C312.452 34.3924 309.702 34.0392 308.044 36.5355C292.091 55.4111 280.815 79.5472 281.435 104.642C281.412 112.108 282.618 119.472 283.824 126.834L283.824 126.837C284.243 129.391 284.661 131.945 285.028 134.503C259.256 131.904 231.284 138.711 213.906 158.918C211.093 165.3 215.914 171.893 219.584 176.913L219.729 177.112C235.414 197.603 262.06 205.723 287.151 205.26C292.035 201.072 299.313 203.476 304.35 206.271C325.136 217.798 341.604 235.918 352.162 257.038C359.263 249.427 366.637 242.089 375.437 236.464C386.589 229.812 398.917 224.953 411.804 223.097C413.524 217.438 414.022 211.596 414.521 205.751V205.751C414.758 202.965 414.996 200.18 415.366 197.414C420.663 167.46 438.196 141.158 459.415 119.962C464.278 114.825 472.053 117.331 477.35 120.271C509.38 138.033 531.156 171.452 536.856 207.377C538.697 219.271 539.556 231.661 538.615 243.834C541.714 241.17 544.965 238.684 548.437 236.464C559.589 229.812 571.917 224.953 584.804 223.097C586.524 217.439 587.022 211.596 587.521 205.751C587.758 202.966 587.996 200.18 588.366 197.414C593.663 167.46 611.196 141.158 632.415 119.962C637.278 114.825 645.053 117.331 650.35 120.271C682.38 138.033 704.156 171.452 709.856 207.377C713.697 232.194 713.264 259.177 701.121 281.828C695.762 282.601 690.341 282.911 684.92 282.447C684.3 281.502 683.378 280.078 682.456 278.654C681.535 277.231 680.614 275.809 679.995 274.866C680.083 267.637 681.556 260.506 683.029 253.381C685.174 242.997 687.317 232.626 685.168 221.983C683.464 194.721 669.37 169.348 648.584 151.957C647.792 151.95 646.945 151.841 646.085 151.731C643.452 151.392 640.702 151.039 639.044 153.535C623.091 172.411 611.815 196.547 612.435 221.642C612.412 229.108 613.618 236.472 614.824 243.834C615.242 246.389 615.661 248.944 616.028 251.503C590.256 248.904 562.284 255.711 544.906 275.918C542.093 282.3 546.914 288.893 550.584 293.913L550.729 294.112C567.736 316.33 597.628 324.004 624.454 321.962C635.203 327.315 636.875 342.323 627.335 349.718C604.598 353.184 580.591 349.718 560.518 338.145C538.101 327.541 522.741 306.107 515.846 282.652C514.538 282.626 513.229 282.559 511.92 282.447C511.301 281.503 510.379 280.08 509.458 278.657C508.536 277.234 507.614 275.81 506.995 274.866C507.083 267.637 508.556 260.506 510.029 253.381C512.174 242.997 514.317 232.626 512.168 221.983C510.464 194.721 496.37 169.348 475.584 151.957C474.792 151.95 473.945 151.841 473.085 151.731C470.452 151.392 467.702 151.039 466.044 153.535C450.091 172.411 438.815 196.547 439.435 221.642C439.412 229.108 440.618 236.472 441.824 243.834L441.824 243.837C442.243 246.391 442.661 248.945 443.028 251.503C417.256 248.904 389.284 255.711 371.906 275.918C369.093 282.3 373.914 288.893 377.584 293.913L377.729 294.112C394.736 316.33 424.628 324.004 451.454 321.962C462.203 327.315 463.875 342.323 454.335 349.718C431.598 353.184 407.591 349.718 387.518 338.145C379.382 334.296 372.175 329.021 365.965 322.739C365.614 338.399 362.572 353.929 355.121 367.828C349.762 368.601 344.341 368.911 338.92 368.447C338.302 367.505 337.382 366.085 336.462 364.664L336.458 364.657L336.456 364.654L336.448 364.641L336.447 364.641C335.529 363.222 334.612 361.806 333.995 360.866C334.083 353.637 335.556 346.506 337.029 339.381C339.174 328.997 341.317 318.626 339.168 307.983C337.464 280.721 323.37 255.348 302.584 237.957C301.792 237.95 300.945 237.841 300.085 237.731C297.452 237.392 294.702 237.039 293.044 239.535C277.091 258.411 265.815 282.547 266.435 307.642C266.412 315.108 267.618 322.472 268.824 329.834L268.824 329.837L268.825 329.84L268.825 329.843L268.826 329.846L268.826 329.849C269.244 332.399 269.662 334.949 270.028 337.503C244.256 334.904 216.284 341.711 198.906 361.918C196.093 368.3 200.914 374.893 204.584 379.913L204.729 380.112C221.736 402.33 251.628 410.004 278.454 407.962C280.144 408.803 281.609 409.884 282.842 411.136C287.031 410.485 291.76 412.279 295.35 414.271C327.38 432.033 349.156 465.452 354.856 501.377C355.745 507.122 356.405 512.982 356.744 518.877C359.502 516.574 362.384 514.416 365.437 512.464C376.589 505.812 388.917 500.953 401.804 499.097C403.524 493.438 404.022 487.596 404.521 481.751V481.751C404.758 478.965 404.996 476.18 405.366 473.414C410.663 443.46 428.196 417.158 449.415 395.962C454.278 390.825 462.053 393.331 467.35 396.271C499.38 414.033 521.156 447.452 526.856 483.377C530.697 508.194 530.264 535.177 518.121 557.828C512.762 558.601 507.341 558.911 501.92 558.447C501.3 557.503 500.379 556.08 499.457 554.656C498.536 553.233 497.614 551.809 496.995 550.866C497.083 543.637 498.556 536.506 500.029 529.381C502.174 518.997 504.317 508.626 502.168 497.983C500.464 470.721 486.37 445.348 465.584 427.957C464.792 427.95 463.945 427.841 463.085 427.731C460.452 427.392 457.702 427.039 456.044 429.535C440.091 448.411 428.815 472.547 429.435 497.642C429.412 505.108 430.618 512.471 431.824 519.834L431.824 519.837C432.243 522.391 432.661 524.945 433.028 527.503C407.256 524.904 379.284 531.711 361.906 551.918C359.093 558.3 363.914 564.893 367.584 569.913L367.729 570.112C384.736 592.33 414.628 600.004 441.454 597.962C452.203 603.315 453.875 618.323 444.335 625.718C421.598 629.184 397.591 625.718 377.518 614.145C360.968 606.316 348.264 592.583 339.973 576.493C336.632 576.725 333.276 576.734 329.92 576.447C329.3 575.503 328.379 574.08 327.457 572.656C326.536 571.233 325.614 569.809 324.995 568.866C325.083 561.637 326.556 554.506 328.029 547.381C330.174 536.997 332.317 526.626 330.168 515.983C328.464 488.721 314.37 463.348 293.584 445.957C292.792 445.95 291.945 445.841 291.085 445.731C288.452 445.392 285.702 445.039 284.044 447.535C268.091 466.411 256.815 490.547 257.435 515.642C257.412 523.108 258.618 530.471 259.824 537.834L259.824 537.837L259.825 537.84L259.825 537.843L259.826 537.846C260.244 540.397 260.662 542.948 261.028 545.503C235.256 542.904 207.284 549.711 189.906 569.918C187.093 576.3 191.914 582.894 195.584 587.913L195.729 588.112C212.736 610.33 242.628 618.004 269.454 615.962C280.203 621.315 281.875 636.323 272.335 643.718C249.598 647.184 225.591 643.718 205.518 632.145C179.157 619.675 162.554 592.228 158 564.131C160.587 561.44 163.123 558.678 165.664 555.912C174.195 546.62 182.768 537.284 193.437 530.464C204.589 523.812 216.917 518.953 229.804 517.097C231.524 511.438 232.022 505.596 232.521 499.751C232.758 496.966 232.996 494.18 233.366 491.414C236.898 471.44 245.871 453.089 257.75 436.794C242.625 435.862 227.72 431.757 214.518 424.145C208.249 421.18 202.533 417.368 197.398 412.901C195.778 422.609 192.83 432.044 188.121 440.828C182.762 441.601 177.341 441.911 171.92 441.447C171.301 440.505 170.382 439.084 169.462 437.663L169.459 437.658L169.451 437.646L169.45 437.645C168.531 436.225 167.613 434.807 166.995 433.866C167.083 426.637 168.556 419.506 170.029 412.381C172.174 401.997 174.317 391.626 172.168 380.983C172.009 378.443 171.743 375.92 171.374 373.419C169.41 367.77 167.945 361.964 167 356.131L167.075 356.053C160.954 338.576 149.844 322.888 135.584 310.957C134.792 310.95 133.945 310.841 133.085 310.731C130.452 310.392 127.702 310.039 126.044 312.535C110.091 331.411 98.8153 355.547 99.4348 380.642C99.4118 388.108 100.618 395.472 101.824 402.834C102.243 405.389 102.661 407.944 103.028 410.503C77.2556 407.904 49.2837 414.711 31.9059 434.918C29.0934 441.3 33.9138 447.893 37.5838 452.913L37.7295 453.112C54.7356 475.33 84.628 483.004 111.454 480.962C122.203 486.315 123.875 501.323 114.335 508.718C91.5977 512.184 67.5909 508.718 47.5181 497.145C21.157 484.675 4.55356 457.228 0 429.131C2.58699 426.44 5.12343 423.678 7.66357 420.912C16.1947 411.62 24.7676 402.284 35.4372 395.464C46.5888 388.812 58.9174 383.953 71.8037 382.097C73.524 376.438 74.0224 370.596 74.5209 364.751C74.7585 361.966 74.9961 359.18 75.366 356.414C80.663 326.46 98.1957 300.158 119.415 278.962C124.278 273.825 132.053 276.331 137.35 279.271C159.632 291.627 176.952 311.561 187.349 334.644C192.01 330.151 196.946 325.974 202.437 322.464C213.589 315.812 225.917 310.953 238.804 309.097C240.524 303.438 241.022 297.596 241.521 291.751C241.758 288.966 241.996 286.18 242.366 283.414C245.606 265.089 253.426 248.132 263.867 232.874C251.831 231.112 240.125 227.261 229.518 221.145C203.157 208.675 186.554 181.228 182 153.131C184.587 150.44 187.123 147.678 189.663 144.912C198.195 135.62 206.768 126.284 217.437 119.464C228.589 112.812 240.917 107.953 253.804 106.097C255.524 100.438 256.022 94.5956 256.521 88.7509V88.7506V88.7503V88.75V88.7496V88.7493C256.758 85.9646 256.996 83.1794 257.366 80.4136C262.663 50.4601 280.196 24.158 301.415 2.96164Z"/>
</mask>
<path d="M319.35 3.27108L318.865 4.14545L318.865 4.14561L319.35 3.27108ZM301.415 2.96164L302.121 3.66912L302.131 3.65928L302.141 3.64916L301.415 2.96164ZM378.856 90.3774L379.844 90.2245L379.844 90.2207L378.856 90.3774ZM370.121 164.828L370.264 165.818L370.763 165.745L371.002 165.3L370.121 164.828ZM353.92 165.447L353.084 165.995L353.351 166.402L353.835 166.443L353.92 165.447ZM348.995 157.866L347.995 157.853L347.991 158.159L348.159 158.414L348.995 157.866ZM352.029 136.381L353.008 136.583L353.008 136.583L352.029 136.381ZM354.168 104.983L353.17 105.045L353.174 105.114L353.188 105.181L354.168 104.983ZM317.584 34.9574L318.226 34.1904L317.952 33.9608L317.594 33.9574L317.584 34.9574ZM315.085 34.7306L315.213 33.7387L315.213 33.7387L315.085 34.7306ZM308.044 36.5355L308.807 37.181L308.845 37.1369L308.877 37.0888L308.044 36.5355ZM281.435 104.642L282.435 104.646L282.435 104.632L282.435 104.618L281.435 104.642ZM283.824 126.834L282.837 126.996L282.837 126.997L283.824 126.834ZM283.824 126.837L284.811 126.676L284.811 126.674L283.824 126.837ZM285.028 134.503L284.928 135.498L286.199 135.626L286.018 134.361L285.028 134.503ZM213.906 158.918L213.148 158.266L213.051 158.378L212.991 158.514L213.906 158.918ZM219.584 176.913L220.391 176.323L220.391 176.323L219.584 176.913ZM219.729 177.112L218.922 177.703L218.929 177.712L218.935 177.72L219.729 177.112ZM287.151 205.26L287.17 206.259L287.529 206.253L287.802 206.019L287.151 205.26ZM304.35 206.271L303.865 207.145L303.865 207.146L304.35 206.271ZM352.162 257.038L351.267 257.485L351.911 258.773L352.893 257.72L352.162 257.038ZM375.437 236.464L374.925 235.606L374.912 235.614L374.899 235.622L375.437 236.464ZM411.804 223.097L411.946 224.087L412.576 223.996L412.76 223.388L411.804 223.097ZM414.521 205.751L415.517 205.836L415.521 205.793V205.751H414.521ZM414.521 205.751L413.525 205.666L413.521 205.708V205.751H414.521ZM415.366 197.414L414.381 197.239L414.378 197.26L414.375 197.281L415.366 197.414ZM459.415 119.962L460.121 120.669L460.131 120.659L460.141 120.649L459.415 119.962ZM477.35 120.271L476.865 121.145L476.865 121.146L477.35 120.271ZM536.856 207.377L537.844 207.224L537.844 207.221L536.856 207.377ZM538.615 243.834L537.618 243.757L537.431 246.171L539.267 244.593L538.615 243.834ZM548.437 236.464L547.925 235.606L547.912 235.614L547.899 235.622L548.437 236.464ZM584.804 223.097L584.946 224.087L585.576 223.996L585.76 223.388L584.804 223.097ZM587.521 205.751L588.517 205.836L588.517 205.836L587.521 205.751ZM588.366 197.414L587.381 197.239L587.378 197.26L587.375 197.281L588.366 197.414ZM632.415 119.962L633.121 120.669L633.131 120.659L633.141 120.649L632.415 119.962ZM650.35 120.271L649.865 121.145L649.865 121.146L650.35 120.271ZM709.856 207.377L710.844 207.224L710.844 207.221L709.856 207.377ZM701.121 281.828L701.264 282.818L701.763 282.745L702.002 282.3L701.121 281.828ZM684.92 282.447L684.084 282.995L684.351 283.402L684.835 283.443L684.92 282.447ZM682.456 278.654L681.616 279.197L681.616 279.197L682.456 278.654ZM679.995 274.866L678.995 274.853L678.991 275.159L679.159 275.414L679.995 274.866ZM683.029 253.381L684.008 253.583L684.008 253.583L683.029 253.381ZM685.168 221.983L684.17 222.045L684.174 222.114L684.188 222.181L685.168 221.983ZM648.584 151.957L649.226 151.19L648.952 150.961L648.594 150.957L648.584 151.957ZM646.085 151.731L646.213 150.739L646.213 150.739L646.085 151.731ZM639.044 153.535L639.807 154.181L639.845 154.137L639.877 154.089L639.044 153.535ZM612.435 221.642L613.435 221.646L613.435 221.632L613.435 221.618L612.435 221.642ZM614.824 243.834L613.837 243.996L613.837 243.996L614.824 243.834ZM616.028 251.503L615.928 252.498L617.199 252.626L617.018 251.361L616.028 251.503ZM544.906 275.918L544.148 275.266L544.051 275.378L543.991 275.514L544.906 275.918ZM550.584 293.913L549.777 294.503L549.777 294.503L550.584 293.913ZM550.729 294.112L549.922 294.703L549.929 294.712L549.935 294.72L550.729 294.112ZM624.454 321.962L624.9 321.067L624.653 320.944L624.378 320.965L624.454 321.962ZM627.335 349.718L627.485 350.707L627.742 350.668L627.947 350.509L627.335 349.718ZM560.518 338.145L561.018 337.279L560.982 337.259L560.946 337.241L560.518 338.145ZM515.846 282.652L516.805 282.37L516.598 281.667L515.866 281.652L515.846 282.652ZM511.92 282.447L511.084 282.995L511.351 283.402L511.835 283.443L511.92 282.447ZM509.458 278.657L508.619 279.201L508.619 279.201L509.458 278.657ZM506.995 274.866L505.995 274.853L505.991 275.159L506.159 275.414L506.995 274.866ZM510.029 253.381L509.049 253.178L509.049 253.178L510.029 253.381ZM512.168 221.983L511.17 222.045L511.174 222.114L511.188 222.181L512.168 221.983ZM475.584 151.957L476.226 151.19L475.952 150.961L475.594 150.957L475.584 151.957ZM473.085 151.731L473.213 150.739L473.213 150.739L473.085 151.731ZM466.044 153.535L466.807 154.181L466.845 154.137L466.877 154.089L466.044 153.535ZM439.435 221.642L440.435 221.646L440.435 221.632L440.435 221.618L439.435 221.642ZM441.824 243.834L440.837 243.996L440.838 243.998L441.824 243.834ZM441.824 243.837L442.811 243.676L442.811 243.673L441.824 243.837ZM443.028 251.503L442.928 252.498L444.199 252.626L444.018 251.361L443.028 251.503ZM371.906 275.918L371.148 275.266L371.051 275.378L370.991 275.514L371.906 275.918ZM377.584 293.913L376.776 294.503L376.776 294.503L377.584 293.913ZM377.729 294.112L376.922 294.703L376.929 294.712L376.935 294.72L377.729 294.112ZM451.454 321.962L451.9 321.067L451.653 320.944L451.378 320.965L451.454 321.962ZM454.335 349.718L454.485 350.707L454.742 350.668L454.947 350.509L454.335 349.718ZM387.518 338.145L388.018 337.279L387.982 337.259L387.946 337.241L387.518 338.145ZM365.965 322.739L366.676 322.036L365.018 320.359L364.965 322.717L365.965 322.739ZM355.121 367.828L355.264 368.818L355.763 368.745L356.002 368.3L355.121 367.828ZM338.92 368.447L338.084 368.995L338.351 369.402L338.835 369.443L338.92 368.447ZM336.462 364.664L335.619 365.201L335.623 365.207L336.462 364.664ZM336.458 364.657L337.301 364.12L337.296 364.111L337.29 364.103L336.458 364.657ZM336.456 364.654L335.616 365.197L335.624 365.209L336.456 364.654ZM336.448 364.641L335.579 365.137L335.593 365.161L335.608 365.185L336.448 364.641ZM336.447 364.641L337.316 364.145L337.302 364.121L337.287 364.097L336.447 364.641ZM333.995 360.866L332.995 360.853L332.991 361.159L333.159 361.414L333.995 360.866ZM337.029 339.381L338.008 339.583L338.008 339.583L337.029 339.381ZM339.168 307.983L338.17 308.045L338.174 308.114L338.188 308.181L339.168 307.983ZM302.584 237.957L303.226 237.19L302.952 236.961L302.594 236.957L302.584 237.957ZM300.085 237.731L300.213 236.739L300.213 236.739L300.085 237.731ZM293.044 239.535L293.807 240.181L293.845 240.137L293.877 240.089L293.044 239.535ZM266.435 307.642L267.435 307.646L267.435 307.632L267.435 307.618L266.435 307.642ZM268.824 329.834L269.812 329.68L269.811 329.672L268.824 329.834ZM268.826 329.849L267.838 330.003L267.839 330.01L268.826 329.849ZM270.028 337.503L269.928 338.498L271.199 338.626L271.018 337.361L270.028 337.503ZM198.906 361.918L198.148 361.266L198.051 361.378L197.991 361.514L198.906 361.918ZM204.584 379.913L205.391 379.323L205.391 379.323L204.584 379.913ZM204.729 380.112L203.922 380.703L203.929 380.712L203.935 380.72L204.729 380.112ZM278.454 407.962L278.9 407.067L278.653 406.944L278.378 406.965L278.454 407.962ZM282.842 411.136L282.13 411.837L282.49 412.203L282.996 412.124L282.842 411.136ZM295.35 414.271L294.865 415.145L294.865 415.146L295.35 414.271ZM354.856 501.377L355.844 501.224L355.844 501.221L354.856 501.377ZM356.744 518.877L355.746 518.935L355.86 520.919L357.385 519.645L356.744 518.877ZM365.437 512.464L364.925 511.606L364.912 511.614L364.899 511.622L365.437 512.464ZM401.804 499.097L401.946 500.087L402.576 499.996L402.76 499.388L401.804 499.097ZM404.521 481.751L405.517 481.836L405.521 481.793V481.751H404.521ZM404.521 481.751L403.525 481.666L403.521 481.708V481.751H404.521ZM405.366 473.414L404.381 473.239L404.378 473.26L404.375 473.281L405.366 473.414ZM449.415 395.962L450.121 396.669L450.131 396.659L450.141 396.649L449.415 395.962ZM467.35 396.271L466.865 397.145L466.865 397.146L467.35 396.271ZM526.856 483.377L527.844 483.224L527.844 483.221L526.856 483.377ZM518.121 557.828L518.264 558.818L518.763 558.745L519.002 558.3L518.121 557.828ZM501.92 558.447L501.084 558.995L501.351 559.402L501.835 559.443L501.92 558.447ZM496.995 550.866L495.995 550.853L495.991 551.159L496.159 551.414L496.995 550.866ZM500.029 529.381L501.008 529.583L501.008 529.583L500.029 529.381ZM502.168 497.983L501.17 498.045L501.174 498.114L501.188 498.181L502.168 497.983ZM465.584 427.957L466.226 427.19L465.952 426.961L465.594 426.957L465.584 427.957ZM463.085 427.731L463.213 426.739L463.213 426.739L463.085 427.731ZM456.044 429.535L456.807 430.181L456.845 430.137L456.877 430.089L456.044 429.535ZM429.435 497.642L430.435 497.646L430.435 497.632L430.435 497.618L429.435 497.642ZM431.824 519.834L432.812 519.679L432.811 519.672L431.824 519.834ZM431.824 519.837L430.836 519.991L430.838 519.998L431.824 519.837ZM433.028 527.503L432.928 528.498L434.199 528.626L434.018 527.361L433.028 527.503ZM361.906 551.918L361.148 551.266L361.051 551.378L360.991 551.514L361.906 551.918ZM367.584 569.913L368.391 569.323L368.391 569.323L367.584 569.913ZM367.729 570.112L366.922 570.703L366.929 570.711L366.935 570.72L367.729 570.112ZM441.454 597.962L441.9 597.067L441.653 596.944L441.378 596.965L441.454 597.962ZM444.335 625.718L444.485 626.707L444.742 626.668L444.947 626.509L444.335 625.718ZM377.518 614.145L378.018 613.279L377.982 613.259L377.946 613.241L377.518 614.145ZM339.973 576.493L340.862 576.035L340.56 575.45L339.904 575.495L339.973 576.493ZM329.92 576.447L329.084 576.995L329.351 577.402L329.835 577.443L329.92 576.447ZM324.995 568.866L323.995 568.853L323.991 569.159L324.159 569.414L324.995 568.866ZM328.029 547.381L329.008 547.583L329.008 547.583L328.029 547.381ZM330.168 515.983L329.17 516.045L329.174 516.114L329.188 516.181L330.168 515.983ZM293.584 445.957L294.226 445.19L293.952 444.961L293.594 444.957L293.584 445.957ZM291.085 445.731L291.213 444.739L291.213 444.739L291.085 445.731ZM284.044 447.535L284.807 448.181L284.845 448.137L284.877 448.089L284.044 447.535ZM257.435 515.642L258.435 515.646L258.435 515.632L258.435 515.618L257.435 515.642ZM259.824 537.834L260.812 537.679L260.811 537.672L259.824 537.834ZM259.826 537.846L258.838 538L258.839 538.007L259.826 537.846ZM261.028 545.503L260.928 546.498L262.199 546.626L262.018 545.361L261.028 545.503ZM189.906 569.918L189.148 569.266L189.051 569.378L188.991 569.514L189.906 569.918ZM195.584 587.913L196.391 587.323L196.391 587.323L195.584 587.913ZM195.729 588.112L194.922 588.703L194.929 588.711L194.935 588.72L195.729 588.112ZM269.454 615.962L269.9 615.067L269.653 614.944L269.378 614.965L269.454 615.962ZM272.335 643.718L272.485 644.707L272.742 644.668L272.947 644.509L272.335 643.718ZM205.518 632.145L206.018 631.279L205.982 631.259L205.946 631.241L205.518 632.145ZM158 564.131L157.279 563.438L156.933 563.798L157.013 564.291L158 564.131ZM165.664 555.912L166.4 556.588L166.4 556.588L165.664 555.912ZM193.437 530.464L192.925 529.606L192.912 529.614L192.899 529.622L193.437 530.464ZM229.804 517.097L229.946 518.087L230.576 517.996L230.76 517.388L229.804 517.097ZM232.521 499.751L233.517 499.836L233.517 499.836L232.521 499.751ZM233.366 491.414L232.381 491.239L232.378 491.26L232.375 491.281L233.366 491.414ZM257.75 436.794L258.558 437.383L259.633 435.908L257.812 435.796L257.75 436.794ZM214.518 424.145L215.018 423.279L214.982 423.259L214.946 423.241L214.518 424.145ZM197.398 412.901L198.055 412.147L196.706 410.974L196.412 412.736L197.398 412.901ZM188.121 440.828L188.264 441.818L188.763 441.745L189.002 441.3L188.121 440.828ZM171.92 441.447L171.084 441.995L171.351 442.402L171.835 442.443L171.92 441.447ZM169.462 437.663L168.619 438.202L168.623 438.207L169.462 437.663ZM169.459 437.658L170.302 437.12L170.297 437.114L169.459 437.658ZM169.451 437.646L168.603 438.176L168.607 438.183L168.612 438.191L169.451 437.646ZM169.45 437.645L170.298 437.115L170.294 437.108L170.29 437.102L169.45 437.645ZM166.995 433.866L165.995 433.853L165.991 434.159L166.159 434.414L166.995 433.866ZM170.029 412.381L169.049 412.178L169.049 412.178L170.029 412.381ZM172.168 380.983L171.17 381.045L171.174 381.114L171.188 381.181L172.168 380.983ZM171.374 373.419L172.363 373.273L172.349 373.179L172.318 373.09L171.374 373.419ZM167 356.131L166.279 355.438L165.933 355.798L166.013 356.291L167 356.131ZM167.075 356.053L167.797 356.745L168.222 356.302L168.019 355.722L167.075 356.053ZM135.584 310.957L136.226 310.19L135.952 309.961L135.594 309.957L135.584 310.957ZM133.085 310.731L133.213 309.739L133.213 309.739L133.085 310.731ZM126.044 312.535L126.807 313.181L126.845 313.137L126.877 313.089L126.044 312.535ZM99.4348 380.642L100.435 380.646L100.435 380.632L100.435 380.618L99.4348 380.642ZM101.824 402.834L102.811 402.673L102.811 402.673L101.824 402.834ZM103.028 410.503L102.928 411.498L104.199 411.626L104.018 410.361L103.028 410.503ZM31.9059 434.918L31.1477 434.266L31.0507 434.378L30.9908 434.514L31.9059 434.918ZM37.5838 452.913L36.7766 453.503L36.7766 453.503L37.5838 452.913ZM37.7295 453.112L36.9222 453.703L36.9287 453.712L36.9354 453.72L37.7295 453.112ZM111.454 480.962L111.9 480.067L111.653 479.944L111.378 479.965L111.454 480.962ZM114.335 508.718L114.485 509.707L114.742 509.668L114.947 509.509L114.335 508.718ZM47.5181 497.145L48.0175 496.279L47.9824 496.259L47.9457 496.241L47.5181 497.145ZM0 429.131L-0.720867 428.438L-1.06702 428.798L-0.98712 429.291L0 429.131ZM7.66357 420.912L6.92698 420.235L6.92698 420.235L7.66357 420.912ZM35.4372 395.464L34.9249 394.606L34.9116 394.614L34.8987 394.622L35.4372 395.464ZM71.8037 382.097L71.9463 383.087L72.5755 382.996L72.7605 382.388L71.8037 382.097ZM74.5209 364.751L73.5245 364.666L73.5245 364.666L74.5209 364.751ZM75.366 356.414L74.3813 356.239L74.3776 356.26L74.3748 356.281L75.366 356.414ZM119.415 278.962L120.121 279.669L120.131 279.659L120.141 279.649L119.415 278.962ZM137.35 279.271L136.865 280.145L136.865 280.146L137.35 279.271ZM187.349 334.644L186.438 335.055L187.021 336.35L188.044 335.364L187.349 334.644ZM202.437 322.464L201.925 321.606L201.912 321.614L201.899 321.622L202.437 322.464ZM238.804 309.097L238.946 310.087L239.576 309.996L239.76 309.388L238.804 309.097ZM241.521 291.751L242.517 291.836L242.517 291.836L241.521 291.751ZM242.366 283.414L241.381 283.239L241.378 283.26L241.375 283.281L242.366 283.414ZM263.867 232.874L264.693 233.438L265.597 232.116L264.012 231.884L263.867 232.874ZM229.518 221.145L230.018 220.279L229.982 220.259L229.946 220.241L229.518 221.145ZM182 153.131L181.279 152.438L180.933 152.798L181.013 153.291L182 153.131ZM189.663 144.912L188.927 144.235L188.927 144.235L189.663 144.912ZM217.437 119.464L216.925 118.606L216.912 118.614L216.899 118.622L217.437 119.464ZM253.804 106.097L253.946 107.087L254.576 106.996L254.76 106.388L253.804 106.097ZM256.521 88.7509L257.517 88.8359L257.521 88.7935V88.7509H256.521ZM256.521 88.7493L255.525 88.6643L255.521 88.7067V88.7493H256.521ZM257.366 80.4136L256.381 80.2394L256.378 80.2602L256.375 80.281L257.366 80.4136ZM319.835 2.3967C317.128 0.894154 313.727 -0.534103 310.329 -0.906305C306.906 -1.28116 303.397 -0.586812 300.689 2.27412L302.141 3.64916C304.295 1.37345 307.106 0.752698 310.111 1.08181C313.14 1.41357 316.275 2.70836 318.865 4.14545L319.835 2.3967ZM379.844 90.2207C374.1 54.0175 352.156 20.3198 319.835 2.39654L318.865 4.14561C350.604 21.7456 372.213 54.8862 377.868 90.5341L379.844 90.2207ZM371.002 165.3C383.294 142.372 383.7 115.133 379.844 90.2245L377.868 90.5304C381.695 115.255 381.233 141.982 369.239 164.355L371.002 165.3ZM353.835 166.443C359.349 166.915 364.849 166.599 370.264 165.818L369.978 163.838C364.675 164.604 359.333 164.906 354.005 164.45L353.835 166.443ZM350.618 162.2C351.539 163.622 352.462 165.048 353.084 165.995L354.756 164.898C354.139 163.957 353.219 162.537 352.297 161.113L350.618 162.2ZM348.159 158.414C348.776 159.355 349.696 160.775 350.618 162.2L352.297 161.113C351.376 159.69 350.452 158.264 349.831 157.317L348.159 158.414ZM351.049 136.178C349.581 143.287 348.084 150.513 347.995 157.853L349.995 157.878C350.082 150.762 351.532 143.725 353.008 136.583L351.049 136.178ZM353.188 105.181C355.29 115.592 353.202 125.762 351.049 136.178L353.008 136.583C355.147 126.233 357.344 115.661 355.148 104.785L353.188 105.181ZM316.943 35.7243C337.54 52.9577 351.485 78.086 353.17 105.045L355.166 104.92C353.443 77.3569 339.199 51.7377 318.226 34.1904L316.943 35.7243ZM314.958 35.7224C315.804 35.8311 316.712 35.949 317.575 35.9573L317.594 33.9574C316.871 33.9505 316.085 33.8508 315.213 33.7387L314.958 35.7224ZM308.877 37.0888C309.522 36.1171 310.35 35.7069 311.345 35.5593C312.407 35.4019 313.608 35.5491 314.958 35.7224L315.213 33.7387C313.929 33.5738 312.438 33.3754 311.052 33.5809C309.6 33.7963 308.223 34.4577 307.211 35.9822L308.877 37.0888ZM282.435 104.618C281.823 79.8353 292.962 55.9291 308.807 37.181L307.28 35.89C291.219 54.8931 279.808 79.259 280.435 104.667L282.435 104.618ZM284.811 126.672C283.603 119.296 282.412 112.015 282.435 104.646L280.435 104.639C280.412 112.202 281.633 119.647 282.837 126.996L284.811 126.672ZM284.811 126.674L284.811 126.671L282.837 126.997L282.838 127.001L284.811 126.674ZM286.018 134.361C285.649 131.792 285.229 129.228 284.811 126.676L282.838 126.999C283.256 129.555 283.673 132.099 284.038 134.645L286.018 134.361ZM214.664 159.57C231.761 139.69 259.36 132.919 284.928 135.498L285.128 133.508C259.151 130.888 230.807 137.733 213.148 158.266L214.664 159.57ZM220.391 176.323C218.543 173.795 216.493 170.984 215.234 168.034C213.982 165.103 213.567 162.166 214.821 159.321L212.991 158.514C211.432 162.052 212.021 165.603 213.394 168.819C214.759 172.016 216.955 175.011 218.777 177.503L220.391 176.323ZM220.537 176.522L220.391 176.323L218.777 177.503L218.922 177.703L220.537 176.522ZM287.133 204.26C262.227 204.72 235.947 196.654 220.524 176.505L218.935 177.72C234.881 198.552 261.892 206.727 287.17 206.259L287.133 204.26ZM304.835 205.397C302.259 203.967 299.059 202.607 295.832 202.156C292.593 201.705 289.23 202.161 286.5 204.5L287.802 206.019C289.957 204.171 292.674 203.735 295.555 204.137C298.447 204.541 301.405 205.78 303.865 207.145L304.835 205.397ZM353.056 256.591C342.416 235.307 325.813 217.03 304.835 205.397L303.865 207.146C324.459 218.565 340.791 236.529 351.267 257.485L353.056 256.591ZM374.899 235.622C365.986 241.318 358.541 248.734 351.431 256.356L352.893 257.72C359.984 250.119 367.287 242.86 375.976 237.307L374.899 235.622ZM411.661 222.107C398.621 223.986 386.168 228.898 374.925 235.606L375.95 237.323C387.009 230.725 399.213 225.921 411.946 224.087L411.661 222.107ZM413.525 205.666C413.025 211.528 412.532 217.265 410.847 222.806L412.76 223.388C414.516 217.612 415.02 211.663 415.517 205.836L413.525 205.666ZM413.521 205.751V205.751H415.521V205.751H413.521ZM414.375 197.281C414.001 200.075 413.762 202.884 413.525 205.666L415.517 205.836C415.755 203.046 415.991 200.285 416.357 197.546L414.375 197.281ZM458.708 119.254C437.403 140.536 419.726 167.015 414.381 197.239L416.351 197.588C421.6 167.906 438.988 141.78 460.121 120.669L458.708 119.254ZM477.835 119.397C475.128 117.894 471.727 116.466 468.329 116.094C464.906 115.719 461.397 116.413 458.689 119.274L460.141 120.649C462.295 118.373 465.106 117.753 468.111 118.082C471.14 118.414 474.275 119.708 476.865 121.145L477.835 119.397ZM537.844 207.221C532.1 171.017 510.156 137.32 477.835 119.397L476.865 121.146C508.604 138.746 530.213 171.886 535.868 207.534L537.844 207.221ZM539.612 243.912C540.56 231.643 539.694 219.172 537.844 207.224L535.868 207.53C537.7 219.369 538.552 231.68 537.618 243.757L539.612 243.912ZM539.267 244.593C542.337 241.953 545.55 239.497 548.976 237.307L547.899 235.622C544.379 237.871 541.091 240.387 537.963 243.076L539.267 244.593ZM548.95 237.323C560.009 230.725 572.213 225.921 584.946 224.087L584.661 222.107C571.621 223.986 559.168 228.898 547.925 235.606L548.95 237.323ZM585.76 223.388C587.516 217.612 588.02 211.663 588.517 205.836L586.525 205.666C586.025 211.528 585.532 217.265 583.847 222.806L585.76 223.388ZM588.517 205.836C588.755 203.047 588.991 200.285 589.357 197.546L587.375 197.281C587.001 200.075 586.762 202.885 586.525 205.666L588.517 205.836ZM589.351 197.588C594.6 167.906 611.988 141.78 633.121 120.669L631.708 119.254C610.403 140.536 592.726 167.015 587.381 197.239L589.351 197.588ZM633.141 120.649C635.295 118.373 638.106 117.753 641.111 118.082C644.14 118.414 647.275 119.708 649.865 121.145L650.835 119.397C648.128 117.894 644.727 116.466 641.329 116.094C637.906 115.719 634.397 116.413 631.689 119.274L633.141 120.649ZM649.865 121.146C681.604 138.746 703.213 171.886 708.868 207.534L710.844 207.221C705.1 171.017 683.156 137.32 650.835 119.397L649.865 121.146ZM708.868 207.53C712.695 232.255 712.233 258.982 700.239 281.355L702.002 282.3C714.294 259.372 714.7 232.133 710.844 207.224L708.868 207.53ZM700.978 280.838C695.675 281.604 690.333 281.906 685.005 281.45L684.835 283.443C690.349 283.915 695.849 283.599 701.264 282.818L700.978 280.838ZM685.756 281.898C685.138 280.957 684.218 279.536 683.295 278.11L681.616 279.197C682.538 280.62 683.462 282.048 684.084 282.995L685.756 281.898ZM683.295 278.11C682.375 276.689 681.452 275.263 680.831 274.317L679.159 275.414C679.776 276.354 680.694 277.773 681.616 279.197L683.295 278.11ZM680.995 274.878C681.082 267.762 682.532 260.725 684.008 253.583L682.049 253.178C680.581 260.287 679.084 267.513 678.995 274.853L680.995 274.878ZM684.008 253.583C686.147 243.233 688.344 232.661 686.148 221.785L684.188 222.181C686.29 232.592 684.202 242.762 682.049 253.178L684.008 253.583ZM686.166 221.92C684.443 194.357 670.199 168.738 649.226 151.19L647.943 152.724C668.54 169.958 682.485 195.086 684.17 222.045L686.166 221.92ZM648.594 150.957C647.871 150.95 647.085 150.851 646.213 150.739L645.958 152.722C646.804 152.831 647.712 152.949 648.575 152.957L648.594 150.957ZM646.213 150.739C644.929 150.574 643.438 150.375 642.052 150.581C640.6 150.796 639.223 151.458 638.211 152.982L639.877 154.089C640.522 153.117 641.35 152.707 642.345 152.559C643.407 152.402 644.608 152.549 645.958 152.722L646.213 150.739ZM638.28 152.89C622.219 171.893 610.808 196.259 611.435 221.667L613.435 221.618C612.823 196.835 623.962 172.929 639.807 154.181L638.28 152.89ZM611.435 221.639C611.412 229.202 612.633 236.647 613.837 243.996L615.811 243.673C614.603 236.296 613.412 229.015 613.435 221.646L611.435 221.639ZM613.837 243.996C614.256 246.553 614.673 249.098 615.038 251.645L617.018 251.361C616.649 248.791 616.229 246.226 615.811 243.673L613.837 243.996ZM616.128 250.508C590.151 247.888 561.807 254.733 544.148 275.266L545.664 276.57C562.761 256.69 590.36 249.919 615.928 252.498L616.128 250.508ZM543.991 275.514C542.432 279.052 543.021 282.603 544.394 285.819C545.759 289.016 547.955 292.011 549.777 294.503L551.391 293.323C549.543 290.795 547.493 287.984 546.234 285.034C544.982 282.103 544.567 279.166 545.821 276.321L543.991 275.514ZM549.777 294.503L549.922 294.703L551.537 293.522L551.391 293.323L549.777 294.503ZM549.935 294.72C567.223 317.306 597.515 325.016 624.53 322.959L624.378 320.965C597.741 322.992 568.248 315.354 551.524 293.505L549.935 294.72ZM624.008 322.857C634.114 327.89 635.665 341.995 626.722 348.928L627.947 350.509C638.085 342.65 636.292 326.74 624.9 321.067L624.008 322.857ZM627.184 348.73C604.64 352.166 580.868 348.724 561.018 337.279L560.019 339.012C580.314 350.713 604.555 354.202 627.485 350.707L627.184 348.73ZM560.946 337.241C538.843 326.786 523.639 305.617 516.805 282.37L514.886 282.934C521.842 306.596 537.36 328.296 560.09 339.049L560.946 337.241ZM511.835 283.443C513.166 283.557 514.497 283.625 515.826 283.652L515.866 281.652C514.579 281.626 513.291 281.56 512.005 281.45L511.835 283.443ZM508.619 279.201C509.539 280.623 510.463 282.049 511.084 282.995L512.756 281.898C512.139 280.958 511.22 279.538 510.298 278.114L508.619 279.201ZM506.159 275.414C506.776 276.355 507.696 277.776 508.619 279.201L510.298 278.114C509.377 276.691 508.453 275.264 507.831 274.317L506.159 275.414ZM509.049 253.178C507.581 260.287 506.084 267.513 505.995 274.853L507.995 274.878C508.082 267.762 509.532 260.725 511.008 253.583L509.049 253.178ZM511.188 222.181C513.29 232.592 511.202 242.762 509.049 253.178L511.008 253.583C513.147 243.233 515.344 232.661 513.148 221.785L511.188 222.181ZM474.943 152.724C495.54 169.958 509.485 195.086 511.17 222.045L513.166 221.92C511.443 194.357 497.199 168.738 476.226 151.19L474.943 152.724ZM472.958 152.722C473.804 152.831 474.712 152.949 475.575 152.957L475.594 150.957C474.871 150.95 474.085 150.851 473.213 150.739L472.958 152.722ZM466.877 154.089C467.522 153.117 468.35 152.707 469.345 152.559C470.407 152.402 471.608 152.549 472.958 152.722L473.213 150.739C471.929 150.574 470.438 150.375 469.052 150.581C467.6 150.796 466.223 151.458 465.211 152.982L466.877 154.089ZM440.435 221.618C439.823 196.835 450.962 172.929 466.807 154.181L465.28 152.89C449.219 171.893 437.808 196.259 438.435 221.667L440.435 221.618ZM442.811 243.672C441.603 236.296 440.412 229.015 440.435 221.646L438.435 221.639C438.412 229.202 439.633 236.647 440.837 243.996L442.811 243.672ZM442.811 243.673L442.81 243.67L440.838 243.998L440.838 244.002L442.811 243.673ZM444.018 251.361C443.649 248.792 443.229 246.228 442.811 243.676L440.838 243.999C441.256 246.555 441.673 249.099 442.038 251.645L444.018 251.361ZM372.664 276.57C389.761 256.69 417.36 249.919 442.928 252.498L443.128 250.508C417.151 247.888 388.807 254.733 371.148 275.266L372.664 276.57ZM378.391 293.323C376.543 290.795 374.493 287.984 373.234 285.034C371.982 282.103 371.567 279.166 372.821 276.321L370.991 275.514C369.432 279.052 370.021 282.603 371.394 285.819C372.759 289.016 374.955 292.011 376.776 294.503L378.391 293.323ZM378.537 293.522L378.391 293.323L376.776 294.503L376.922 294.703L378.537 293.522ZM451.378 320.965C424.741 322.992 395.248 315.354 378.524 293.505L376.935 294.72C394.223 317.306 424.515 325.016 451.53 322.959L451.378 320.965ZM454.947 350.509C465.085 342.65 463.292 326.74 451.9 321.067L451.008 322.857C461.114 327.89 462.665 341.995 453.722 348.928L454.947 350.509ZM387.019 339.012C407.314 350.713 431.555 354.202 454.485 350.707L454.184 348.73C431.64 352.166 407.868 348.724 388.018 337.279L387.019 339.012ZM365.254 323.442C371.539 329.8 378.84 335.146 387.09 339.049L387.946 337.241C379.923 333.446 372.811 328.241 366.676 322.036L365.254 323.442ZM356.002 368.3C363.547 354.227 366.611 338.532 366.965 322.762L364.965 322.717C364.617 338.266 361.597 353.631 354.239 367.355L356.002 368.3ZM338.835 369.443C344.349 369.915 349.849 369.599 355.264 368.818L354.978 366.838C349.675 367.604 344.333 367.906 339.005 367.45L338.835 369.443ZM335.623 365.207C336.542 366.627 337.463 368.05 338.084 368.995L339.756 367.898C339.14 366.959 338.222 365.542 337.302 364.12L335.623 365.207ZM335.615 365.195L335.619 365.201L337.305 364.126L337.301 364.12L335.615 365.195ZM335.624 365.209L335.626 365.212L337.29 364.103L337.288 364.099L335.624 365.209ZM335.608 365.185L335.616 365.197L337.295 364.111L337.287 364.098L335.608 365.185ZM335.579 365.137L335.579 365.137L337.316 364.145L337.316 364.145L335.579 365.137ZM333.159 361.414C333.774 362.351 334.689 363.765 335.608 365.184L337.287 364.097C336.369 362.68 335.45 361.26 334.831 360.317L333.159 361.414ZM336.049 339.178C334.581 346.287 333.084 353.513 332.995 360.853L334.995 360.878C335.082 353.762 336.532 346.725 338.008 339.583L336.049 339.178ZM338.188 308.181C340.29 318.592 338.202 328.762 336.049 339.178L338.008 339.583C340.147 329.233 342.344 318.661 340.148 307.785L338.188 308.181ZM301.943 238.724C322.54 255.958 336.485 281.086 338.17 308.045L340.166 307.92C338.443 280.357 324.199 254.738 303.226 237.19L301.943 238.724ZM299.958 238.722C300.804 238.831 301.712 238.949 302.575 238.957L302.594 236.957C301.871 236.95 301.085 236.851 300.213 236.739L299.958 238.722ZM293.877 240.089C294.522 239.117 295.35 238.707 296.345 238.559C297.407 238.402 298.608 238.549 299.958 238.722L300.213 236.739C298.929 236.574 297.438 236.375 296.052 236.581C294.6 236.796 293.223 237.458 292.211 238.982L293.877 240.089ZM267.435 307.618C266.823 282.835 277.962 258.929 293.807 240.181L292.28 238.89C276.219 257.893 264.808 282.259 265.435 307.667L267.435 307.618ZM269.811 329.672C268.603 322.296 267.412 315.015 267.435 307.646L265.435 307.639C265.412 315.202 266.633 322.647 267.837 329.996L269.811 329.672ZM269.812 329.683L269.812 329.68L267.836 329.988L267.836 329.991L269.812 329.683ZM269.813 329.685L269.812 329.683L267.836 329.991L267.837 329.994L269.813 329.685ZM269.813 329.688L269.813 329.685L267.837 329.994L267.837 329.997L269.813 329.688ZM269.814 329.691L269.813 329.688L267.837 329.997L267.838 330L269.814 329.691ZM269.814 329.694L269.814 329.691L267.838 330L267.838 330.003L269.814 329.694ZM271.018 337.361C270.65 334.795 270.231 332.235 269.813 329.687L267.839 330.01C268.257 332.562 268.674 335.102 269.038 337.645L271.018 337.361ZM199.664 362.57C216.761 342.69 244.36 335.919 269.928 338.498L270.128 336.508C244.151 333.888 215.807 340.733 198.148 361.266L199.664 362.57ZM205.391 379.323C203.543 376.795 201.493 373.984 200.234 371.034C198.982 368.103 198.567 365.166 199.821 362.321L197.991 361.514C196.432 365.052 197.021 368.603 198.394 371.819C199.759 375.016 201.955 378.011 203.777 380.503L205.391 379.323ZM205.537 379.522L205.391 379.323L203.777 380.503L203.922 380.703L205.537 379.522ZM278.378 406.965C251.741 408.992 222.248 401.354 205.524 379.505L203.935 380.72C221.223 403.306 251.515 411.016 278.53 408.959L278.378 406.965ZM283.555 410.434C282.245 409.104 280.69 407.958 278.9 407.067L278.008 408.857C279.598 409.649 280.974 410.663 282.13 411.837L283.555 410.434ZM295.835 413.397C292.195 411.377 287.218 409.444 282.689 410.148L282.996 412.124C286.844 411.526 291.324 413.181 294.865 415.145L295.835 413.397ZM355.844 501.221C350.1 465.017 328.156 431.32 295.835 413.397L294.865 415.146C326.604 432.746 348.213 465.886 353.868 501.534L355.844 501.221ZM357.742 518.82C357.402 512.888 356.738 506.996 355.844 501.224L353.868 501.53C354.753 507.247 355.409 513.075 355.746 518.935L357.742 518.82ZM364.899 511.622C361.804 513.6 358.888 515.783 356.103 518.11L357.385 519.645C360.116 517.364 362.964 515.232 365.976 513.307L364.899 511.622ZM401.661 498.107C388.621 499.986 376.168 504.898 364.925 511.606L365.95 513.323C377.009 506.725 389.213 501.921 401.946 500.087L401.661 498.107ZM403.525 481.666C403.025 487.528 402.532 493.265 400.847 498.806L402.76 499.388C404.516 493.612 405.02 487.663 405.517 481.836L403.525 481.666ZM403.521 481.751V481.751H405.521V481.751H403.521ZM404.375 473.281C404.001 476.075 403.762 478.884 403.525 481.666L405.517 481.836C405.755 479.046 405.991 476.285 406.357 473.546L404.375 473.281ZM448.708 395.254C427.403 416.536 409.726 443.015 404.381 473.239L406.351 473.588C411.6 443.906 428.988 417.78 450.121 396.669L448.708 395.254ZM467.835 395.397C465.128 393.894 461.727 392.466 458.329 392.094C454.906 391.719 451.397 392.413 448.689 395.274L450.141 396.649C452.295 394.373 455.106 393.753 458.111 394.082C461.14 394.414 464.275 395.708 466.865 397.145L467.835 395.397ZM527.844 483.221C522.1 447.017 500.156 413.32 467.835 395.397L466.865 397.146C498.604 414.746 520.213 447.886 525.868 483.534L527.844 483.221ZM519.002 558.3C531.294 535.372 531.7 508.133 527.844 483.224L525.868 483.53C529.695 508.255 529.233 534.982 517.239 557.355L519.002 558.3ZM501.835 559.443C507.349 559.915 512.849 559.599 518.264 558.818L517.978 556.838C512.675 557.604 507.333 557.907 502.005 557.45L501.835 559.443ZM498.618 555.2C499.539 556.622 500.462 558.048 501.084 558.995L502.756 557.898C502.139 556.957 501.219 555.537 500.297 554.113L498.618 555.2ZM496.159 551.414C496.776 552.355 497.696 553.775 498.618 555.2L500.297 554.113C499.376 552.69 498.452 551.264 497.831 550.317L496.159 551.414ZM499.049 529.178C497.581 536.287 496.084 543.513 495.995 550.853L497.995 550.878C498.082 543.762 499.532 536.725 501.008 529.583L499.049 529.178ZM501.188 498.181C503.29 508.591 501.202 518.762 499.049 529.178L501.008 529.583C503.147 519.233 505.344 508.661 503.148 497.785L501.188 498.181ZM464.943 428.724C485.54 445.958 499.485 471.086 501.17 498.045L503.166 497.92C501.443 470.357 487.199 444.738 466.226 427.19L464.943 428.724ZM462.958 428.722C463.804 428.831 464.712 428.949 465.575 428.957L465.594 426.957C464.871 426.95 464.085 426.851 463.213 426.739L462.958 428.722ZM456.877 430.089C457.522 429.117 458.35 428.707 459.345 428.559C460.407 428.402 461.608 428.549 462.958 428.722L463.213 426.739C461.929 426.574 460.438 426.375 459.052 426.581C457.6 426.796 456.223 427.458 455.211 428.982L456.877 430.089ZM430.435 497.618C429.823 472.835 440.962 448.929 456.807 430.181L455.28 428.89C439.219 447.893 427.808 472.259 428.435 497.667L430.435 497.618ZM432.811 519.672C431.603 512.296 430.412 505.015 430.435 497.646L428.435 497.639C428.412 505.202 429.633 512.647 430.837 519.996L432.811 519.672ZM432.812 519.682L432.812 519.679L430.836 519.988L430.836 519.991L432.812 519.682ZM434.018 527.361C433.649 524.791 433.229 522.228 432.811 519.675L430.838 519.998C431.256 522.554 431.673 525.098 432.038 527.645L434.018 527.361ZM362.664 552.57C379.761 532.69 407.36 525.919 432.928 528.498L433.128 526.508C407.151 523.888 378.807 530.733 361.148 551.266L362.664 552.57ZM368.391 569.323C366.543 566.795 364.493 563.984 363.234 561.034C361.982 558.103 361.567 555.166 362.821 552.321L360.991 551.514C359.432 555.052 360.021 558.603 361.394 561.819C362.759 565.016 364.955 568.011 366.777 570.503L368.391 569.323ZM368.537 569.522L368.391 569.323L366.777 570.503L366.922 570.703L368.537 569.522ZM441.378 596.965C414.741 598.993 385.248 591.354 368.524 569.505L366.935 570.72C384.223 593.306 414.515 601.016 441.53 598.959L441.378 596.965ZM444.947 626.509C455.085 618.65 453.292 602.74 441.9 597.067L441.008 598.857C451.114 603.89 452.665 617.995 443.722 624.928L444.947 626.509ZM377.019 615.012C397.314 626.713 421.555 630.202 444.485 626.707L444.184 624.73C421.64 628.166 397.868 624.724 378.018 613.279L377.019 615.012ZM339.084 576.951C347.456 593.2 360.307 607.11 377.09 615.049L377.946 613.241C361.628 605.522 349.071 591.967 340.862 576.035L339.084 576.951ZM329.835 577.443C333.249 577.735 336.657 577.726 340.042 577.49L339.904 575.495C336.607 575.724 333.303 575.733 330.005 575.45L329.835 577.443ZM326.618 573.2C327.539 574.622 328.462 576.048 329.084 576.995L330.756 575.898C330.139 574.957 329.219 573.537 328.297 572.113L326.618 573.2ZM324.159 569.414C324.776 570.355 325.696 571.775 326.618 573.2L328.297 572.113C327.376 570.69 326.452 569.264 325.831 568.317L324.159 569.414ZM327.049 547.178C325.581 554.287 324.084 561.513 323.995 568.853L325.995 568.878C326.082 561.762 327.532 554.725 329.008 547.583L327.049 547.178ZM329.188 516.181C331.29 526.591 329.202 536.762 327.049 547.178L329.008 547.583C331.147 537.233 333.344 526.661 331.148 515.785L329.188 516.181ZM292.943 446.724C313.54 463.958 327.485 489.086 329.17 516.045L331.166 515.92C329.443 488.357 315.199 462.738 294.226 445.19L292.943 446.724ZM290.958 446.722C291.804 446.831 292.712 446.949 293.575 446.957L293.594 444.957C292.871 444.95 292.085 444.851 291.213 444.739L290.958 446.722ZM284.877 448.089C285.522 447.117 286.35 446.707 287.345 446.559C288.407 446.402 289.608 446.549 290.958 446.722L291.213 444.739C289.929 444.574 288.438 444.375 287.052 444.581C285.6 444.796 284.223 445.458 283.211 446.982L284.877 448.089ZM258.435 515.618C257.823 490.835 268.962 466.929 284.807 448.181L283.28 446.89C267.219 465.893 255.808 490.259 256.435 515.667L258.435 515.618ZM260.811 537.672C259.603 530.296 258.412 523.015 258.435 515.646L256.435 515.639C256.412 523.202 257.633 530.647 258.837 537.996L260.811 537.672ZM260.812 537.682L260.812 537.679L258.836 537.988L258.836 537.991L260.812 537.682ZM260.813 537.685L260.812 537.682L258.836 537.991L258.837 537.994L260.813 537.685ZM260.813 537.688L260.813 537.685L258.837 537.994L258.837 537.997L260.813 537.688ZM260.814 537.691L260.813 537.688L258.837 537.997L258.838 538L260.814 537.691ZM262.018 545.361C261.65 542.794 261.23 540.233 260.813 537.684L258.839 538.007C259.257 540.56 259.673 543.101 260.038 545.645L262.018 545.361ZM190.664 570.57C207.761 550.69 235.36 543.919 260.928 546.498L261.128 544.508C235.151 541.888 206.807 548.733 189.148 569.266L190.664 570.57ZM196.391 587.323C194.543 584.795 192.493 581.984 191.234 579.034C189.982 576.103 189.567 573.166 190.821 570.321L188.991 569.514C187.432 573.052 188.021 576.603 189.394 579.819C190.759 583.016 192.955 586.011 194.777 588.504L196.391 587.323ZM196.537 587.522L196.391 587.323L194.777 588.503L194.922 588.703L196.537 587.522ZM269.378 614.965C242.741 616.993 213.248 609.354 196.524 587.505L194.935 588.72C212.223 611.306 242.515 619.016 269.53 616.959L269.378 614.965ZM272.947 644.509C283.085 636.65 281.292 620.74 269.9 615.067L269.008 616.857C279.114 621.89 280.665 635.995 271.722 642.928L272.947 644.509ZM205.019 633.012C225.314 644.713 249.555 648.202 272.485 644.707L272.184 642.73C249.64 646.166 225.868 642.724 206.018 631.279L205.019 633.012ZM157.013 564.291C161.606 592.63 178.363 620.406 205.09 633.049L205.946 631.241C179.951 618.944 163.502 591.826 158.987 563.971L157.013 564.291ZM164.927 555.235C162.386 558.003 159.857 560.757 157.279 563.438L158.721 564.824C161.317 562.124 163.861 559.353 166.4 556.588L164.927 555.235ZM192.899 529.622C182.101 536.523 173.443 545.961 164.927 555.235L166.4 556.588C174.947 547.28 183.434 538.045 193.976 531.307L192.899 529.622ZM229.661 516.107C216.621 517.986 204.168 522.898 192.925 529.606L193.95 531.323C205.009 524.725 217.213 519.921 229.946 518.087L229.661 516.107ZM231.525 499.666C231.025 505.528 230.532 511.265 228.847 516.806L230.76 517.388C232.516 511.612 233.02 505.663 233.517 499.836L231.525 499.666ZM232.375 491.281C232.001 494.075 231.762 496.885 231.525 499.666L233.517 499.836C233.755 497.047 233.991 494.285 234.357 491.546L232.375 491.281ZM256.942 436.205C244.996 452.592 235.946 471.082 232.381 491.239L234.351 491.588C237.851 471.797 246.747 453.586 258.558 437.383L256.942 436.205ZM214.019 425.012C227.368 432.708 242.425 436.851 257.689 437.792L257.812 435.796C242.824 434.872 228.073 430.806 215.018 423.279L214.019 425.012ZM196.742 413.655C201.941 418.179 207.734 422.042 214.09 425.049L214.946 423.241C208.765 420.317 203.124 416.557 198.055 412.147L196.742 413.655ZM189.002 441.3C193.77 432.406 196.749 422.864 198.385 413.066L196.412 412.736C194.806 422.354 191.889 431.682 187.239 440.355L189.002 441.3ZM171.835 442.443C177.349 442.915 182.849 442.599 188.264 441.818L187.978 439.838C182.675 440.604 177.333 440.906 172.005 440.45L171.835 442.443ZM168.623 438.207C169.542 439.627 170.463 441.05 171.084 441.995L172.756 440.898C172.14 439.959 171.222 438.542 170.301 437.12L168.623 438.207ZM168.616 438.197L168.619 438.202L170.305 437.125L170.301 437.12L168.616 438.197ZM168.612 438.191L168.62 438.203L170.297 437.114L170.289 437.101L168.612 438.191ZM168.602 438.175L168.603 438.176L170.299 437.116L170.298 437.115L168.602 438.175ZM166.159 434.414C166.775 435.352 167.691 436.768 168.611 438.189L170.29 437.102C169.371 435.683 168.451 434.261 167.831 433.317L166.159 434.414ZM169.049 412.178C167.581 419.287 166.084 426.513 165.995 433.853L167.995 433.878C168.082 426.762 169.532 419.725 171.008 412.583L169.049 412.178ZM171.188 381.181C173.29 391.592 171.202 401.762 169.049 412.178L171.008 412.583C173.147 402.233 175.344 391.661 173.148 380.785L171.188 381.181ZM170.384 373.565C170.75 376.039 171.013 378.534 171.17 381.045L173.166 380.92C173.005 378.353 172.736 375.802 172.363 373.273L170.384 373.565ZM166.013 356.291C166.968 362.182 168.447 368.043 170.429 373.747L172.318 373.09C170.374 367.496 168.923 361.747 167.987 355.971L166.013 356.291ZM166.354 355.36L166.279 355.438L167.721 356.824L167.797 356.745L166.354 355.36ZM134.943 311.724C149.07 323.544 160.073 339.084 166.132 356.383L168.019 355.722C161.836 338.068 150.618 322.231 136.226 310.19L134.943 311.724ZM132.958 311.722C133.804 311.831 134.712 311.949 135.575 311.957L135.594 309.957C134.871 309.95 134.085 309.851 133.213 309.739L132.958 311.722ZM126.877 313.089C127.522 312.117 128.35 311.707 129.345 311.559C130.407 311.402 131.608 311.549 132.958 311.722L133.213 309.739C131.929 309.574 130.438 309.375 129.052 309.581C127.6 309.796 126.223 310.458 125.211 311.982L126.877 313.089ZM100.435 380.618C99.8227 355.835 110.962 331.929 126.807 313.181L125.28 311.89C109.219 330.893 97.8079 355.259 98.4351 380.667L100.435 380.618ZM102.811 402.673C101.603 395.296 100.412 388.015 100.435 380.646L98.4348 380.639C98.4115 388.202 99.6334 395.647 100.837 402.996L102.811 402.673ZM104.018 410.361C103.649 407.791 103.229 405.226 102.811 402.673L100.837 402.996C101.256 405.552 101.673 408.098 102.038 410.645L104.018 410.361ZM32.664 435.57C49.7609 415.69 77.3605 408.919 102.928 411.498L103.128 409.508C77.1507 406.888 48.8065 413.733 31.1477 434.266L32.664 435.57ZM38.3911 452.323C36.5431 449.795 34.4932 446.984 33.2336 444.034C31.9822 441.103 31.5674 438.166 32.821 435.321L30.9908 434.514C29.4319 438.052 30.0211 441.603 31.3942 444.819C32.7592 448.016 34.9546 451.011 36.7766 453.503L38.3911 452.323ZM38.5367 452.522L38.3911 452.323L36.7766 453.503L36.9222 453.703L38.5367 452.522ZM111.378 479.965C84.7412 481.992 55.2478 474.354 38.5236 452.505L36.9354 453.72C54.2234 476.306 84.5148 484.016 111.53 481.959L111.378 479.965ZM114.947 509.509C125.085 501.65 123.292 485.74 111.9 480.067L111.008 481.857C121.114 486.89 122.665 500.995 113.722 507.928L114.947 509.509ZM47.0186 498.012C67.3138 509.713 91.5555 513.202 114.485 509.707L114.184 507.73C91.64 511.166 67.868 507.724 48.0175 496.279L47.0186 498.012ZM-0.98712 429.291C3.60561 457.63 20.3629 485.406 47.0904 498.049L47.9457 496.241C21.9511 483.944 5.50151 456.826 0.98712 428.971L-0.98712 429.291ZM6.92698 420.235C4.38552 423.003 1.85683 425.757 -0.720867 428.438L0.720867 429.824C3.31715 427.124 5.86135 424.353 8.40017 421.588L6.92698 420.235ZM34.8987 394.622C24.1008 401.523 15.4428 410.961 6.92698 420.235L8.40016 421.588C16.9467 412.28 25.4343 403.044 35.9757 396.307L34.8987 394.622ZM71.6611 381.107C58.6215 382.986 46.1683 387.898 34.9249 394.606L35.9495 396.323C47.0092 389.725 59.2134 384.921 71.9463 383.087L71.6611 381.107ZM73.5245 364.666C73.0245 370.528 72.5315 376.265 70.8469 381.806L72.7605 382.388C74.5165 376.612 75.0202 370.663 75.5173 364.836L73.5245 364.666ZM74.3748 356.281C74.0012 359.075 73.7618 361.885 73.5245 364.666L75.5173 364.836C75.7552 362.047 75.991 359.285 76.3572 356.546L74.3748 356.281ZM118.708 278.254C97.4031 299.536 79.7263 326.015 74.3813 356.239L76.3507 356.588C81.5997 326.906 98.9884 300.78 120.121 279.669L118.708 278.254ZM137.835 278.397C135.128 276.894 131.727 275.466 128.329 275.094C124.906 274.719 121.397 275.413 118.689 278.274L120.141 279.649C122.295 277.373 125.106 276.753 128.111 277.082C131.14 277.414 134.275 278.708 136.865 280.145L137.835 278.397ZM188.261 334.234C177.784 310.972 160.323 290.867 137.835 278.397L136.865 280.146C158.941 292.388 176.12 312.149 186.438 335.055L188.261 334.234ZM201.899 321.622C196.334 325.178 191.346 329.402 186.655 333.925L188.044 335.364C192.674 330.899 197.558 326.77 202.976 323.307L201.899 321.622ZM238.661 308.107C225.621 309.986 213.168 314.898 201.925 321.606L202.95 323.323C214.009 316.725 226.213 311.921 238.946 310.087L238.661 308.107ZM240.525 291.666C240.025 297.528 239.532 303.265 237.847 308.806L239.76 309.388C241.516 303.612 242.02 297.663 242.517 291.836L240.525 291.666ZM241.375 283.281C241.001 286.075 240.762 288.885 240.525 291.666L242.517 291.836C242.755 289.047 242.991 286.285 243.357 283.546L241.375 283.281ZM263.042 232.309C252.538 247.658 244.652 264.747 241.381 283.239L243.351 283.588C246.561 265.432 254.314 248.606 264.693 233.438L263.042 232.309ZM229.019 222.012C239.744 228.195 251.572 232.085 263.723 233.863L264.012 231.884C252.09 230.14 240.506 226.326 230.018 220.279L229.019 222.012ZM181.013 153.291C185.606 181.63 202.363 209.406 229.09 222.049L229.946 220.241C203.951 207.944 187.502 180.826 182.987 152.971L181.013 153.291ZM188.927 144.235C186.385 147.003 183.857 149.757 181.279 152.438L182.721 153.824C185.317 151.124 187.861 148.353 190.4 145.588L188.927 144.235ZM216.899 118.622C206.101 125.523 197.443 134.961 188.927 144.235L190.4 145.588C198.947 136.28 207.434 127.045 217.976 120.307L216.899 118.622ZM253.661 105.107C240.621 106.986 228.168 111.898 216.925 118.606L217.95 120.323C229.009 113.725 241.213 108.921 253.946 107.087L253.661 105.107ZM255.525 88.6659C255.025 94.528 254.532 100.265 252.847 105.806L254.76 106.388C256.516 100.612 257.02 94.6632 257.517 88.8359L255.525 88.6659ZM255.521 88.7506V88.7509H257.521V88.7506H255.521ZM255.521 88.7503V88.7506H257.521V88.7503H255.521ZM255.521 88.75V88.7503H257.521V88.75H255.521ZM255.521 88.7496V88.75H257.521V88.7496H255.521ZM255.521 88.7493V88.7496H257.521V88.7493H255.521ZM256.375 80.281C256.001 83.0745 255.762 85.8836 255.525 88.6643L257.517 88.8343C257.755 86.0456 257.991 83.2843 258.357 80.5461L256.375 80.281ZM300.708 2.25416C279.403 23.5363 261.726 50.0146 256.381 80.2394L258.351 80.5877C263.6 50.9056 280.988 24.7797 302.121 3.66912L300.708 2.25416Z" fill="#C8C8E1" fill-opacity="0.25" mask="url(#path-1-inside-1_22_14)"/>
</svg>
